<svg viewBox="0 0 500 500" fill="none" xmlns="http://www.w3.org/2000/svg" role="img" aria-label="Site favicon">
<g transform="translate(0.000000,500.000000) scale(0.100000,-0.100000)" fill="currentColor" stroke="none">
<path fill="#0f9db6" d="M337 4713 c-4 -3 -7 -655 -7 -1448 0 -1289 -2 -1447 -16 -1480 -27
-67 -74 -258 -80 -330 l-6 -70 51 -50 51 -49 0 -478 0 -478 2175 0 2175 0 -2
2192 -3 2193 -2166 3 c-1191 1 -2169 -1 -2172 -5z m4283 -2193 l0 -2130 -1168
0 -1168 0 -12 148 c-25 304 -97 566 -241 875 -24 53 -41 104 -41 125 0 47 56
347 72 387 7 17 29 60 49 96 99 175 89 279 -43 430 -81 94 -98 119 -98 144 0
44 -32 127 -62 161 -40 46 -75 62 -237 113 l-134 43 6 96 c5 84 43 251 60 269
3 3 46 -4 95 -16 49 -12 117 -24 150 -27 56 -6 62 -5 86 19 20 20 26 36 26 68
0 25 8 55 21 76 12 18 19 42 16 53 -3 11 3 26 15 37 15 13 19 26 15 50 -5 28
-2 34 29 52 49 29 51 45 12 104 -64 96 -65 99 -62 257 1 80 7 158 13 173 41
108 -30 204 -190 257 -189 62 -404 85 -519 56 -129 -33 -236 -109 -295 -210
-36 -62 -44 -95 -55 -224 -6 -62 -14 -121 -20 -132 -5 -10 -32 -26 -60 -35
-94 -31 -140 -88 -140 -173 0 -146 160 -272 368 -289 84 -7 83 -3 51 -126 -42
-169 -142 -322 -239 -369 -19 -9 -60 -28 -90 -42 -144 -67 -220 -193 -351
-586 -27 -80 -57 -167 -68 -195 l-20 -50 -1 1323 0 1322 2115 0 2115 0 0
-2130z m-2704 1627 c43 -65 47 -91 40 -221 -7 -136 -1 -161 55 -243 16 -23 29
-45 29 -50 0 -5 -13 -14 -30 -20 -27 -10 -30 -15 -30 -56 0 -44 0 -45 -52 -67
l-52 -22 28 -25 c25 -21 27 -27 17 -51 -5 -15 -12 -43 -13 -62 -3 -33 -6 -35
-40 -38 -50 -4 -174 32 -270 77 l-77 37 -10 -50 c-25 -121 -33 -198 -34 -311
-1 -128 10 -188 43 -227 l20 -23 -6 28 c-7 33 -6 33 75 5 64 -23 64 -23 97
-93 38 -82 84 -226 84 -261 0 -13 -5 -24 -12 -24 -21 0 -291 145 -478 258
-102 61 -210 120 -241 132 l-56 22 56 56 c91 92 155 239 176 403 7 54 7 54 60
78 33 14 74 44 105 76 51 55 61 75 36 75 -22 0 -57 51 -54 78 2 17 13 27 39
36 94 32 165 134 176 251 l6 65 32 0 c76 0 190 83 230 167 9 18 19 33 23 33 4
0 16 -15 28 -33z m-932 -1390 c87 -53 131 -166 123 -316 -6 -115 -34 -197 -88
-253 -35 -37 -66 -51 -56 -25 10 27 38 179 34 183 -8 8 -96 -155 -271 -499
-91 -180 -166 -330 -166 -332 0 -2 30 -28 68 -58 37 -30 148 -125 247 -212
214 -188 270 -227 322 -228 22 -1 94 19 169 46 l131 48 109 -43 c85 -34 103
-44 81 -46 -15 -2 -61 6 -101 18 -40 12 -83 20 -97 18 -19 -4 -4 -14 76 -53
113 -54 188 -102 180 -115 -6 -10 -18 -7 -95 28 -90 40 -143 59 -185 67 -54 9
-42 0 82 -65 100 -52 135 -80 99 -80 -8 0 -49 13 -91 30 -81 32 -113 36 -195
20 -130 -25 -133 -24 -398 109 -134 67 -284 147 -334 178 -111 68 -324 226
-330 244 -11 33 53 254 150 524 34 94 89 251 123 350 78 229 135 347 197 410
77 79 144 95 216 52z m136 -1014 c112 -169 206 -319 208 -333 2 -17 -10 -43
-41 -85 -36 -50 -63 -93 -134 -213 -9 -14 -64 31 -350 286 l-160 143 61 113
c34 62 92 177 131 255 38 77 72 141 75 141 3 0 98 -138 210 -307z m-705 -512
c19 -32 385 -234 573 -316 49 -22 61 -32 56 -44 -33 -76 -84 -343 -84 -441 l0
-40 -285 0 -285 0 0 425 c0 391 3 450 25 416z"/>
<path fill="#0f9db6" d="M3738 4190 c-86 -10 -140 -68 -146 -157 -5 -84 23 -132 123 -208 43
-33 87 -74 97 -90 41 -68 8 -135 -66 -135 -51 0 -96 29 -125 80 -12 22 -26 40
-32 40 -5 0 -9 -36 -9 -79 l0 -79 40 -16 c56 -22 164 -21 216 3 73 33 111 106
101 193 -8 66 -35 107 -105 158 -128 95 -151 129 -127 185 13 32 18 35 54 35
54 0 82 -14 110 -56 13 -18 27 -34 32 -34 5 0 9 31 9 69 0 56 -3 70 -17 76
-35 13 -109 20 -155 15z"/>
<path fill="#0f9db6" d="M4153 4190 c-127 -30 -170 -176 -86 -288 13 -18 57 -57 96 -87 107
-80 133 -140 82 -190 -49 -50 -143 -23 -187 54 -13 23 -26 41 -30 41 -10 0
-10 -142 0 -156 20 -31 150 -45 221 -24 39 11 86 52 107 93 20 37 20 137 1
173 -17 33 -71 85 -137 134 -64 47 -90 80 -90 115 0 40 10 54 46 64 44 12 95
-12 125 -58 13 -22 27 -37 32 -34 4 2 7 35 7 73 l0 68 -32 10 c-50 16 -119 21
-155 12z"/>
<path fill="#0f9db6" d="M2643 4183 c-64 -4 -75 -11 -48 -33 18 -15 19 -78 1 -357 -11 -191
-13 -204 -36 -228 l-23 -25 76 0 77 0 -16 25 c-14 22 -15 48 -9 218 l8 192 22
-50 c12 -27 48 -121 80 -208 32 -86 64 -165 71 -175 11 -15 14 -15 27 -2 8 8
49 110 92 225 43 116 81 214 85 218 4 4 10 -54 13 -129 10 -209 9 -267 -8
-290 -8 -12 -13 -23 -11 -25 3 -2 46 -3 96 -1 92 3 92 4 73 24 -16 18 -19 50
-27 294 -8 248 -7 276 8 292 9 10 16 22 16 25 0 4 -36 7 -79 7 l-79 0 -40
-102 c-21 -57 -57 -149 -78 -205 -21 -57 -41 -103 -44 -103 -3 0 -34 78 -70
173 -69 187 -96 248 -108 245 -4 -1 -35 -3 -69 -5z"/>
<path fill="#0f9db6" d="M3318 4157 c21 -23 22 -30 22 -296 l0 -272 -24 -24 c-13 -13 -21 -26
-18 -29 7 -8 187 -7 195 0 3 4 -2 17 -12 30 -17 21 -18 46 -17 293 1 241 3
271 19 288 9 11 17 23 17 26 0 4 -46 7 -102 7 l-101 0 21 -23z"/>
<path fill="#0f9db6" d="M2620 3381 c0 -6 5 -13 10 -16 19 -12 10 -56 -61 -277 -86 -274 -87
-276 -111 -289 -10 -5 -16 -14 -13 -20 6 -9 155 -13 155 -4 0 3 -9 18 -20 33
-18 25 -18 31 -7 77 l13 50 87 3 c87 3 87 3 98 -25 20 -52 22 -98 5 -112 -9
-7 -16 -17 -16 -22 0 -5 50 -9 111 -9 l111 0 -28 33 c-23 25 -47 92 -114 310
l-85 277 -67 0 c-38 0 -68 -4 -68 -9z m94 -268 c14 -51 26 -97 26 -102 0 -7
-26 -11 -66 -11 -58 0 -66 2 -61 18 30 107 63 200 68 194 4 -4 19 -48 33 -99z"/>
<path fill="#0f9db6" d="M2877 3368 c35 -39 54 -85 138 -343 l81 -250 38 0 38 0 89 260 c49
143 100 281 113 308 l23 47 -69 0 -68 0 15 -24 c16 -23 13 -34 -46 -220 -34
-108 -65 -196 -68 -196 -3 0 -32 87 -64 194 -53 177 -60 226 -36 226 5 0 9 5
9 10 0 6 -42 10 -107 10 l-106 0 20 -22z"/>
<path fill="#b60f33" d="M3430 3384 c0 -3 7 -12 15 -20 13 -13 15 -58 15 -278 0 -250 -1 -264
-20 -281 -38 -34 -25 -38 103 -32 163 8 216 24 282 90 41 42 55 64 68 113 55
195 -32 364 -206 401 -61 12 -257 18 -257 7z m243 -68 c69 -29 95 -80 104
-201 12 -179 -49 -285 -167 -285 l-30 0 0 250 0 250 30 0 c17 0 45 -6 63 -14z"/>
<path fill="#b60f33" d="M3960 3381 c0 -5 7 -14 15 -21 13 -10 15 -54 15 -275 0 -250 -1 -264
-21 -289 l-20 -26 100 0 c56 0 101 3 101 8 0 4 -9 15 -20 25 -19 16 -20 27
-18 135 l3 117 86 3 86 3 6 -36 c3 -20 5 -74 4 -120 -2 -63 -6 -88 -19 -102
-10 -11 -18 -23 -18 -26 0 -4 43 -7 95 -7 52 0 95 3 95 6 0 3 -9 17 -20 31
-19 24 -20 41 -20 273 0 232 1 249 20 273 11 14 20 28 20 31 0 3 -43 6 -95 6
-52 0 -95 -3 -95 -7 0 -3 6 -14 14 -22 10 -11 15 -51 18 -128 l4 -113 -93 0
-93 0 0 108 c0 96 2 111 20 127 11 10 20 22 20 27 0 4 -43 8 -95 8 -52 0 -95
-4 -95 -9z"/>
<path fill="#ff6900" d="M2804 2595 c-153 -33 -314 -132 -409 -252 -58 -74 -130 -219 -149
-303 -50 -215 -11 -429 109 -601 l44 -63 -22 -30 c-12 -17 -45 -64 -75 -104
-30 -41 -52 -75 -50 -77 2 -2 55 24 118 59 l115 64 35 -28 c161 -127 397 -178
603 -131 345 80 580 355 594 696 6 134 -11 226 -63 336 l-36 77 19 29 c36 50
186 324 181 329 -3 2 -83 -34 -179 -80 l-174 -84 -49 35 c-74 53 -177 102
-263 123 -90 24 -254 26 -349 5z m328 -74 c114 -29 283 -121 261 -141 -26 -24
-347 -190 -353 -183 -4 4 -15 53 -24 108 -25 152 -27 152 -52 10 -13 -71 -26
-144 -29 -161 -4 -23 -15 -35 -49 -51 l-44 -22 -118 82 c-98 67 -116 76 -100
52 11 -17 47 -72 82 -123 62 -93 62 -94 46 -125 -8 -18 -16 -33 -17 -35 -1 -1
-80 -16 -176 -32 -206 -36 -205 -36 -154 -44 167 -29 271 -50 279 -57 5 -4 -7
-29 -26 -56 -129 -179 -211 -288 -217 -290 -10 -4 -68 86 -94 147 -84 192 -67
417 45 608 54 92 180 213 268 255 154 76 322 96 472 58z m343 -298 c-151 -198
-299 -382 -307 -383 -5 0 -8 15 -8 34 0 48 -16 86 -52 123 -18 18 -29 35 -25
39 16 17 482 323 485 319 2 -2 -40 -62 -93 -132z m161 -231 c44 -228 -19 -435
-181 -597 -89 -89 -157 -133 -267 -173 -67 -25 -85 -27 -228 -27 -148 0 -158
1 -225 29 -76 31 -175 91 -175 104 0 5 60 42 133 82 72 40 155 86 183 102 l52
28 11 -65 c6 -36 16 -94 22 -131 6 -36 13 -63 16 -61 2 3 14 70 27 151 13 81
25 148 27 150 2 1 24 14 49 28 l45 25 110 -78 c60 -42 111 -76 113 -74 2 2
-29 51 -68 110 l-71 106 38 46 c21 26 40 50 43 55 5 7 115 32 234 52 21 4 36
9 34 11 -1 2 -41 11 -88 20 -47 10 -86 19 -88 20 -2 2 41 62 95 135 l98 133
23 -54 c13 -30 30 -87 38 -127z m-611 -16 c68 -29 95 -118 55 -183 -37 -61
-118 -81 -174 -44 -40 27 -55 57 -56 112 0 54 26 94 74 115 40 17 59 17 101 0z
m-173 -344 c-46 -33 -302 -213 -345 -242 -31 -21 45 69 166 197 57 60 112 119
122 130 l18 21 43 -36 44 -36 -48 -34z"/>
<path fill="#ff0000" d="M2927 1902 c-38 -42 -8 -102 50 -102 37 0 56 21 56 62 0 53 -70 80
-106 40z"/>
<path fill="#fff" d="M4023 869 c-8 -8 -41 -10 -97 -7 l-86 4 0 -66 c0 -38 5 -71 12 -78 7
-7 40 -12 80 -12 61 0 68 -2 68 -20 0 -19 -7 -20 -102 -22 -57 -1 -87 -3 -66
-5 29 -3 38 -10 48 -34 8 -19 27 -36 56 -49 24 -10 44 -24 44 -29 0 -15 43
-14 58 1 7 7 12 34 12 60 l0 48 43 0 42 1 -24 20 c-22 18 -25 18 -42 3 -17
-15 -18 -15 -16 5 1 14 8 21 23 21 12 0 28 7 35 16 11 13 10 17 -4 25 -9 6
-17 17 -17 26 0 11 -4 10 -17 -6 -16 -20 -26 -22 -97 -19 -56 2 -81 7 -84 17
-4 11 12 13 84 10 l89 -4 6 37 c4 28 2 42 -11 53 -20 18 -23 18 -37 4z m-3
-49 c0 -18 -7 -20 -65 -20 -58 0 -65 2 -65 20 0 18 7 20 65 20 58 0 65 -2 65
-20z m-20 -194 c0 -19 -4 -37 -8 -40 -17 -10 -51 7 -54 27 -2 12 -14 27 -28
34 -23 12 -20 13 33 13 l57 0 0 -34z"/>
<path fill="#fff" d="M4216 855 c-5 -18 -12 -25 -21 -21 -12 4 -15 -6 -15 -54 0 -38 -4
-60 -11 -60 -8 0 -8 -4 1 -15 12 -15 6 -97 -11 -142 -5 -13 -5 -23 0 -23 13 0
51 64 52 86 0 11 3 14 6 7 2 -7 11 -13 19 -13 8 0 14 -7 14 -15 0 -8 -4 -15
-10 -15 -18 0 3 -32 27 -41 54 -20 103 43 103 134 0 44 3 57 15 57 12 0 15
-17 15 -95 l0 -95 44 0 c51 0 57 10 40 60 -7 19 -13 27 -13 18 -1 -9 -6 -20
-12 -24 -7 -4 -10 17 -7 68 3 68 1 77 -19 92 -20 15 -23 15 -31 0 -9 -16 -23
-16 -64 1 -16 6 -18 -1 -19 -71 0 -44 -4 -88 -9 -99 -6 -13 -9 24 -8 104 0
106 -2 125 -16 133 -11 6 -22 6 -32 -2 -7 -7 -14 -9 -14 -5 0 4 10 15 23 26
18 15 19 18 5 19 -9 0 -23 3 -31 6 -10 3 -17 -4 -21 -21z m34 -61 c0 -14 -3
-14 -15 -4 -8 7 -15 14 -15 16 0 2 7 4 15 4 8 0 15 -7 15 -16z m0 -65 c0 -5
-7 -9 -15 -9 -8 0 -15 7 -15 15 0 9 6 12 15 9 8 -4 15 -10 15 -15z m0 -40 c0
-18 -2 -19 -15 -9 -8 7 -15 16 -15 21 0 5 7 9 15 9 9 0 15 -9 15 -21z"/>
<path fill="#fff" d="M4350 870 c0 -24 21 -60 35 -60 21 0 30 27 16 44 -14 16 -51 28 -51
16z"/>
<path fill="#b60f33" d="M2831 852 c-12 -22 3 -42 30 -42 22 0 33 28 18 46 -16 19 -36 17 -48
-4z"/>
<path fill="#b60f33" d="M2440 830 c0 -5 7 -10 15 -10 12 0 15 -19 15 -113 0 -108 -1 -114
-22 -125 -20 -9 -15 -11 32 -11 47 0 52 2 33 11 -21 10 -23 17 -23 105 0 51 2
93 4 93 2 0 21 -47 42 -105 22 -58 44 -105 50 -105 6 0 29 48 50 106 l39 107
3 -94 c2 -79 0 -96 -15 -106 -14 -11 -6 -13 53 -12 51 0 63 3 47 9 -22 9 -23
14 -23 123 0 108 1 115 23 125 19 10 14 11 -32 9 l-54 -2 -29 -80 c-16 -44
-32 -83 -37 -87 -4 -5 -22 33 -40 82 l-34 90 -49 0 c-26 0 -48 -4 -48 -10z"/>
<path fill="#0f9db6" d="M3356 718 c-21 -68 -46 -128 -55 -135 -13 -10 -9 -12 28 -13 39 0 43
2 27 13 -13 9 -16 20 -11 40 6 24 12 27 50 27 39 0 44 -3 53 -30 9 -24 8 -31
-6 -40 -13 -7 0 -9 47 -10 61 0 63 1 43 18 -12 10 -36 66 -58 135 -32 99 -42
117 -59 117 -17 0 -26 -19 -59 -122z m68 -25 c7 -21 4 -23 -28 -23 -20 0 -36
1 -36 3 0 2 7 28 16 58 l17 54 12 -35 c7 -19 15 -45 19 -57z"/>
<path fill="#0f9db6" d="M3525 824 c11 -8 37 -64 61 -132 57 -161 67 -161 118 -5 24 75 46
124 60 135 21 17 20 18 -27 18 -30 0 -46 -4 -42 -10 3 -5 12 -10 19 -10 10 0
7 -21 -12 -85 -14 -47 -29 -85 -33 -85 -4 0 -20 37 -35 82 -26 78 -26 82 -8
95 15 11 9 13 -52 13 -64 -1 -67 -2 -49 -16z"/>
<path fill="#fff" d="M4432 820 c-9 -14 -26 -20 -69 -23 -42 -2 -32 -4 35 -5 96 -2 110 5
66 34 -17 12 -21 11 -32 -6z"/>
<path fill="#fff" d="M2835 763 c-28 -7 -43 -23 -22 -23 26 0 25 -144 0 -159 -14 -8 -3
-10 42 -10 33 0 54 3 48 6 -9 3 -13 33 -13 99 0 101 0 100 -55 87z"/>
<path fill="#fff" d="M2962 754 c-22 -15 -29 -57 -14 -81 4 -6 26 -19 50 -28 34 -14 42
-22 40 -39 -2 -15 -11 -22 -34 -24 -27 -3 -33 1 -38 22 -6 24 -26 37 -26 17 0
-5 -3 -16 -6 -24 -4 -11 5 -18 31 -26 72 -20 130 11 123 66 -2 22 -13 33 -47
50 -59 30 -67 39 -51 58 19 23 49 18 60 -10 5 -14 14 -25 20 -25 16 0 11 47
-6 54 -29 11 -79 6 -102 -10z"/>
<path fill="#fff" d="M3142 754 c-27 -19 -29 -64 -4 -86 9 -9 31 -20 47 -25 22 -7 30 -16
30 -34 0 -19 -6 -25 -27 -27 -22 -3 -30 2 -38 22 -13 34 -32 33 -28 -1 4 -34
46 -47 101 -32 75 20 67 97 -14 124 -26 9 -34 17 -34 36 0 36 41 39 57 5 6
-14 15 -26 20 -26 15 0 8 48 -8 54 -29 11 -79 6 -102 -10z"/>
<path fill="#b60f33" d="M1764 3966 c-47 -21 -51 -35 -7 -26 39 9 128 -3 148 -20 13 -11 25
-3 25 16 0 37 -106 56 -166 30z"/>
<path fill="#b60f33" d="M1862 3834 c-8 -13 -19 -16 -61 -12 -57 6 -61 1 -28 -29 31 -28 61
-43 90 -43 23 0 24 2 19 48 -6 56 -7 59 -20 36z"/>
</g>
</svg>