<svg xmlns="http://www.w3.org/2000/svg" xmlns:xlink="http://www.w3.org/1999/xlink" viewBox="0 0 99.2 109.94"><defs><linearGradient id="b" x1="53.08" x2="66.04" y1="59.74" y2="110.14" gradientUnits="userSpaceOnUse"><stop offset="0" stop-color="#fad395"/><stop offset="1" stop-color="#eb8c5d"/></linearGradient><linearGradient id="a" x1="63.88" x2="97" y1="32.38" y2="67.66" gradientUnits="userSpaceOnUse"><stop offset="0" stop-color="#eb8c5d"/><stop offset="1" stop-color="#fad395"/></linearGradient><linearGradient xlink:href="#a" id="c" x1="36.52" x2="34.36" y1="77.02" y2="110.14"/><linearGradient xlink:href="#a" id="d" x1="38.68" x2="57.4" y1="35.26" y2="49.66"/><linearGradient xlink:href="#a" id="e" x1="25.72" x2="45.88" y1="69.82" y2="76.3"/></defs><path fill="#c63" d="M27.14 107.36C16.47 104.47 4.64 98.8 1.5 90l-.6-1.7 22.57-33.88-2.25-1.48C28.2 46 35 36.53 37.16 24.65l16.92 17.6c.44-7.75-1-12 1.27-20.42C56.77 16.6 60.45 8 64.8 4.6c13.33-10.5 33.3-.66 34.33 6.58.4 2.8-1.35 5.4-2.68 7.74-6.63 11.57-10.32 23.3-13.28 36.2-1.5 6.63.14 13.77-1.6 20.38-.9 3.45-5 17.4-20.2 18.44-6.78 20.22-21.62 16.85-34.24 13.43z"/><path fill="url(#b)" d="M67 90.58c4.77-4 9.75-10.9 11.1-16 1.53-5.79 0-13.38 1.58-20.27 2.64-11.54 6.15-24.06 13.66-37.17 3-5.16 3.73-6-2.06-9.83C84.42 2.76 74 1.91 67 7.41c-3.57 2.82-9.3 13.88-9.4 23.16 0 4.71.42 11.39-.36 15.2 3.57 4.32 9 9.72 9.65 14.84C54.8 48 45.3 38.45 36.18 28.89A54.7 54.7 0 0 1 23.76 50.3c1.6 1.06 3.18 2.09 4.74 3.07L4.91 88.8c5.36 12.92 43.79 22.51 55.63 13A29 29 0 0 0 67 90.58" transform="translate(-.01)"/><path fill="url(#a)" d="M67 90.58c4.77-4 10.25-10.57 11.6-15.68 1.53-5.8.1-13.75 1.68-20.64 2.64-11.54 6-23.33 13.47-36.44 2-3.46 2.57-5.67 1.27-7.46-2.63-.46-4.38-1.83-7.55 2.75s-14.18 32.1-13.7 42.6c.56 12.82 4.35 18.85-6.75 34.86z" transform="translate(-.01)"/><path fill="url(#c)" d="M67 90.58c-7 6.58-11.26 5.91-18.64 5.16A19.27 19.27 0 0 0 51.5 79c4.3-4.9 9.59-22.93 1.15-23.62l-24.15-2L4.91 88.8c4.9 13.78 43.26 23.48 55.63 13A14.48 14.48 0 0 0 67 90.58" transform="translate(-.01)"/><path fill="#c63" d="M52.92 57.2c-6-.7-10-1-14.76-2.4-9-2.9-19.42-8.76-26-12.94-2.48-6.52.13-14.17 4.24-19.26 3.4-4.22 4.63-3.72 9.8-3.42 8.6.5 17.16.43 23.75 2.63 5 2.4 14.38 15.08 14.85 15.86-.93 7.24-3 15-11.88 19.52z"/><path fill="#fad395" d="M49.32 25.4c4.24 4.07 9.13 8 11.86 13.86a19.18 19.18 0 0 1-8.47 14.8c-6.66 1.84-33.56-11.55-38-14.75-.8-4.24.9-9.23 4.62-14.22 2.2-3 2.24-2.76 5.92-2.53 8.38.55 18.9.68 24.06 2.83z"/><path fill="url(#d)" d="M49.33 25.4c4.24 4.07 9.13 8 11.86 13.86a19.22 19.22 0 0 1-8.47 14.81c-3.1.85-10.58-1.59-18.14-4.76A114.4 114.4 0 0 1 48.44 25.2Z" transform="translate(-.01)"/><path fill="#c63" d="M54.45 54.44c2.35 6.76 1.06 15.2-3.57 20.73-.7.83-.37.6-1.37 1q-.675.285-1.38.48a19.38 19.38 0 0 1-2.23 18.57c-.64.85-.33.6-1.28 1.06-14.46 7.06-31.84 3-35.56-11.75l-7.42 5.54c-3.2-7.4-.64-14.73 2.63-21.34-.53-.3-1.06-.63-1.6-1C1.4 67 1.76 67.4 1.24 66-1 59.75.06 53.7 2.4 48.05s2.4-6.5 8.46-6.56c8.7-.1 17.87.15 25.12 1.6 4.6.92 17.43 9.4 18.07 10.22z"/><path fill="#fad395" d="M30.58 72c5.95 2.13 9.66 3.5 14.27 6.16a15.86 15.86 0 0 1-1.8 14.93C29.54 99.64 16.84 95 5 88.65 3 84 3.63 78 6.72 71.85c8.85 0 15.66-.68 23.86.1zm4.82-25.33a89 89 0 0 1 15.66 9c1.9 5.5.92 12.65-2.93 17.24-1.254.47-2.572.75-3.9.83a100 100 0 0 0-12.43-5.16c-2.06-.74-12.54-.58-20.23-.43a33 33 0 0 1-6.94-3.4c-1.58-4.32-1.23-9.5.86-14.88 1-2.6 2.37-4.54 5.32-4.55 8.5 0 16.26-.08 24.6 1.3z"/><path fill="url(#e)" d="M30.59 72c5.95 2.13 9.66 3.5 14.27 6.16a15.83 15.83 0 0 1-1.81 14.93A30.7 30.7 0 0 1 25.44 96a224 224 0 0 1 3-24.21l2.19.18Zm-1.48-3.8A89.6 89.6 0 0 1 36 46.9a89.3 89.3 0 0 1 15.06 8.72c1.91 5.5.92 12.65-2.93 17.24a13.4 13.4 0 0 1-3.91.83 99 99 0 0 0-12.42-5.11 13 13 0 0 0-2.69-.38" transform="translate(-.01)"/></svg>