<svg xmlns="http://www.w3.org/2000/svg" width="16" height="16" viewBox="0 0 16 16"><path fill="#ff9701" d="M15.734 15.744a.95.95 0 0 1-.63.256.86.86 0 0 1-.629-.256l-2.852-2.889a7.12 7.12 0 0 1-4.425 1.533 7.16 7.16 0 0 1-5.094-2.103A7.15 7.15 0 0 1 0 7.194c0-1.926.747-3.735 2.104-5.09A7.16 7.16 0 0 1 7.198 0c1.928 0 3.737.747 5.094 2.103 2.577 2.575 2.812 6.664.57 9.533l2.872 2.851a.877.877 0 0 1 0 1.257m-4.7-12.383a5.39 5.39 0 0 0-3.836-1.592 5.42 5.42 0 0 0-3.835 1.592A5.38 5.38 0 0 0 1.77 7.194c0 1.435.57 2.81 1.593 3.833a5.42 5.42 0 0 0 7.67 0 5.38 5.38 0 0 0 1.593-3.833c0-1.454-.57-2.81-1.593-3.833z"/></svg>