<svg xmlns="http://www.w3.org/2000/svg" width="30" height="30" fill="none" viewBox="0 0 30 30"><g clip-path="url(#a)"><g clip-path="url(#b)"><g clip-path="url(#c)"><path fill="#63310f" d="M20.625 20.532s0 4.406.563 6c0 0-5.625 1.687-6.563 1.5L15 21.938c0-.094 4.594-1.875 5.625-1.406"/><path fill="#29383a" d="M20.532 19.125s2.531.844 3 1.594 2.156 4.312-1.781 5.343c-3.844 1.032-8.063 1.688-8.625.657-.563-1.125-.657-3.469 0-4.875.75-1.407 7.406-2.719 7.406-2.719"/><path fill="#ff9c44" d="M20.344 19.5s2.156.656 2.625 1.313 2.062 4.125-1.5 5.156c-3.563.937-7.125 2.156-7.688 1.125s-.937-3.75-.28-5.063c.655-1.312 6.843-2.531 6.843-2.531"/><path fill="#fff" d="M20.626 20.062s0 4.406.562 6c0 0-4.406 1.593-5.343 1.312 0 0-.938-3.75-.844-5.906-.094 0 4.594-1.875 5.625-1.406"/><path fill="#63310f" d="m26.719 21.469-4.313 5.625-4.5.843 1.407-4.406.28-1.5 6.845-2.062z"/><path fill="#ce9d67" d="m25.688 21.844-4.125 4.968-3 .375 1.03-3.562z"/><path fill="#63310f" d="M21.188 24.469c-.188 0-.188.468-.188.843 0 .188.094.375.281.47l1.969 1.03q.141.141.281 0c.188-.093.282-.375.375-.656q0-.421-.281-.562c-.562-.469-2.156-1.125-2.437-1.125"/><path fill="#e5895b" d="M21.374 24.563c-.187 0-.187.468-.094.75 0 .187.094.28.282.375l1.78.843c.095 0 .188.094.282 0 .188-.093.281-.375.375-.562 0-.188-.094-.469-.281-.563-.656-.187-2.156-.843-2.344-.843"/><path fill="#ffd097" d="M21.375 24.656c-.094 0-.094.375-.094.657 0 .187.094.28.188.28l1.312.75h.188c.187-.093.187-.28.281-.468 0-.187 0-.375-.187-.469-.375-.281-1.5-.75-1.688-.75"/><path fill="#63310f" d="M21.093 25.5c-.188 0-.188.375-.094.656 0 .188.094.282.281.375l1.688.844c.094 0 .187.094.281 0 .188-.094.281-.375.281-.562a.52.52 0 0 0-.28-.47c-.563-.28-1.97-.843-2.157-.843"/><path fill="#e5895b" d="M21.281 25.688c-.093 0-.093.375-.093.562 0 .094.093.281.187.375l1.5.75h.188a.52.52 0 0 0 .28-.469.72.72 0 0 0-.187-.468c-.562-.282-1.781-.75-1.875-.75"/><path fill="#ffd097" d="M21.281 25.688c-.093 0-.093.28-.093.468 0 .094.093.188.187.282l1.125.656h.188c.093-.094.187-.282.187-.375 0-.188 0-.282-.187-.375z"/><path fill="#63310f" d="M21.469 23.344c-.188 0-.188.562-.188.937 0 .188.094.375.282.469l2.156 1.031c.093.094.187.094.375 0 .281-.093.375-.468.375-.75.093-.281-.094-.562-.282-.656-.75-.375-2.53-1.031-2.718-1.031"/><path fill="#e5895b" d="M21.656 23.531c-.187 0-.187.469-.187.844 0 .188.093.375.281.469l1.875.843c.094 0 .188.094.281 0 .188-.093.282-.375.375-.656s-.093-.468-.281-.562c-.656-.375-2.156-.938-2.344-.938"/><path fill="#ffd097" d="M21.656 23.624c-.093 0-.093.375-.093.656 0 .188.093.282.187.375l1.406.75h.188c.187-.093.281-.375.281-.562s0-.375-.187-.469c-.47-.281-1.688-.75-1.782-.75m-.562-4.406L18 22.78l-3.187-2.625s4.874-1.218 6.28-.937"/><path fill="#af7945" d="m25.969 20.625-5.625 1.781-.375 1.219 5.718-1.875z"/><path fill="#29383a" d="M14.063 14.156s.562 1.875.562 3.844l-.094 1.875S17.25 19.125 18 18c.844-1.125 1.594-4.969 1.594-4.969l-1.219-1.125z"/><path fill="#29383a" d="M25.876 10.875c-.094 4.875-4.125 8.812-9 8.718S8.813 15.375 9.282 10.5c.375-4.032 4.031-8.25 9-8.157 4.969.094 7.687 3.657 7.594 8.532"/><path fill="#8e4028" d="M25.782 10.594c-.094 4.687-4.5 10.312-9.094 10.218s-7.5-5.719-7.406-10.5C9.375 5.718 12 1.875 17.719 1.968c4.5.094 8.063 3.938 8.063 8.626"/><path fill="#29383a" d="M21.173 11.763c.053-3.416-2.59-6.228-5.903-6.28-3.313-.051-6.042 2.677-6.096 6.094-.053 3.417 2.59 6.228 5.904 6.28s6.042-2.677 6.095-6.094"/><path fill="#29383a" d="M23.158 10.123s.656 2.532-.094 3.563 2.719 1.219 2.719 1.219 1.125-2.813.656-4.407-3.281-.375-3.281-.375m-2.625 6.844c1.125 0-.844 3.656-2.157 4.125-1.312.469-3.468.656-4.5.281-1.03-.375-3.375-3.656-3.75-4.687l-.75-1.969s.282.188.938.469c1.219.656 3.844 2.062 10.219 1.781m-4.688-2.437s1.875-.844 3.094-.375c0 0 .562.562.281.75s-.656.562-.937.28c-.282-.187-1.688-.75-2.438-.655m-4.594-1.032s-.562-1.218-1.5-1.218c0 0-.656.28-.562.468 0 .282 0 .657.375.563.281-.094 1.312-.094 1.687.187"/><path fill="#29383a" d="m20.156 17.062 2.625-1.407.657 1.313s-1.313 2.344-4.22 3.469zm-6.843-4.032 1.593.188.188-1.219-1.875-.187zm2.343-2.437s1.219-1.031 2.813-.75c1.593.281 2.906 1.594 2.25 1.969-.75.375-1.125-.188-1.5-.75-.375-.47-1.594-.844-2.719.187 0 0-.656-.187-.844-.656m5.719-5.438c-3.656-.937-9-1.312-11.531 2.157 1.406.656 4.219 1.03 4.219 1.03L15 7.875c3-1.781 6.469-1.219 8.625-.562-.562-1.125-1.312-1.97-2.25-2.157"/><path fill="#8e4028" d="m24.75 4.219-.562 3.093s-4.97-2.437-8.907-.093l-.75.281s-4.312-.375-4.687-1.125c0 0-1.031-1.125-.656-2.625 0 0 .562.844.75 1.5 0 0-.188-2.625 1.593-3.656 0 0-.28.281 0 1.5 0 0 3.188-2.906 5.625-3.094 0 0-.937 1.031-.843 2.344 0 0 2.625-1.406 5.53-1.219 0 0-.28.844-.843 1.594 0 0 1.969.562 3.75 1.5"/><path fill="#29383a" d="M21.844 6.75 20.53 8.438s1.875 2.53 1.875 5.25l3.938-2.344-1.125-4.688z"/><path fill="#29383a" d="M21.656 12.75c.094 0 1.969-.469 1.969-.469l.094.563-1.969 1.406.094-1.125zm3.375-5.25-3.75.844s.282-.281.563.844h2.531c.094 0 1.219-.376 1.219-.376z"/><path fill="#8e4028" d="M21.563 1.125s-1.5 1.313-3.375 1.781l3.375.844s-2.25.75-3.188.844c-.937.093-1.969.468-1.969.468l4.782.188s-3.657.375-5.157 1.5c0 0 4.407-1.406 8.25.469l.563-.282 1.125-2.343s-2.25-1.125-3.563-1.313L21.47 3l.562-1.875z"/><path fill="#8e4028" d="m25.875 4.594-3.937.281 2.062.75-3.75.563s1.875.093 2.813 1.218l.656.188 1.312-.469z"/><path fill="#29383a" d="M9.375 5.625s1.313.844 2.438.844l4.968-.094L14.625 7.5s-3.469-.187-4.219-.562c-.656-.375-1.031-1.313-1.031-1.313"/><path fill="#8e4028" d="M12.188 1.688s-.376 2.156.28 3.375c0 0-1.124-1.22-1.124-2.625 0 .093.094-.563.844-.75"/><path fill="#8e4028" d="M15.47.469s-2.157 1.031-2.813 2.25c-.562 1.219-.375 1.969-.375 1.969s.375-1.407 1.125-1.97c.75-.468 2.063-2.25 2.063-2.25m4.406 1.125c.093 0-2.532.187-4.032 1.5s-2.53 1.969-2.53 1.969l3-1.5c.093.093 2.343-1.782 3.562-1.97"/><path fill="#29383a" d="M23.907 13.781s1.219-1.031 1.969-1.031c.656.094 1.687 3.281-.844 3.75-2.625.563-1.125-2.719-1.125-2.719"/><path fill="#29383a" d="M23.438 14.062s1.5-1.969 2.344-1.875 1.875 4.312-1.219 4.875c-3 .469-1.125-3-1.125-3"/><path fill="#29383a" d="M24.093 13.594s1.031-.75 1.687-.75c.563.094 1.313 2.906-.843 3.281-2.157.281-.844-2.531-.844-2.531"/><path fill="#29383a" d="M23.813 13.781s1.031-.75 1.688-.75c.562.094 1.312 2.906-.844 3.281s-.844-2.53-.844-2.53m-7.406 6.188c-.844 1.125-3.281.75-3.188-.282z"/><path fill="#29383a" d="M18.75 17.531c-.375.188-.937.375-1.406.375-1.875.188-3.563.094-5.532-.187.282.187.47.281.75.281.282.375.47.844.563 1.219-.187 0-.375.187-.656.093 1.312.563 3.281.563 4.031.282.563-.188 1.5-.938 2.531-1.875-.093-.094-.187-.188-.281-.188"/><path fill="#29383a" d="M19.125 17.344c-.094 0-.094-.094-.187-.094h.093c-.093 0-.093 0-.187-.094-.375.282-1.032.469-1.5.563-1.875.187-3.563.093-5.532-.375l.094.281c.281.188.563.188.844.281.281.469.375.938.469 1.313-.188 0-.375 0-.656-.094 1.312.75 4.406.938 5.062.469.563-.188.75-.938 1.5-2.25"/><path fill="#29383a" d="M13.031 18.094c.188.281.375.656.375 1.031v.094c.188 0 .281.093.469.093.469.094 1.031.188 1.5.188.281 0 .75 0 1.031-.094.469-.187.844-.468 1.219-.75.281-.187.563-.375.75-.656l-1.031.281z"/><path fill="#29383a" d="m13.031 18.094.281.562c.094.094.376.094.47.188-.188.093-.282.187-.282.375.75.187 2.813.375 3.563.093.187-.093.468-.187.656-.375-.094-.093-.844-.093-1.032-.093.375-.094.844-.188 1.032-.375.093-.094.281-.282.281-.375-.187.093-.375.093-.562.093-1.5.094-2.907.094-4.407-.093"/><path fill="#29383a" d="M13.125 18.375c.094.094.094.188.188.281.093.094.374.094.468.188-.187.093-.281.187-.281.375.656.187 2.063.468 2.813.187q.28-.422.28-.843zm7.313-3.094c-.844 0-1.594.281-2.063.563-.844.094-1.125.094-1.781 0-1.407-.844-.938-2.25-.282-3.188.282-.469.75-.656 1.313-.656 1.406.094 2.438.469 2.813.656.375.563.75 2.344 0 2.625"/><path fill="#29383a" d="M20.438 15.28a5.5 5.5 0 0 0-1.875.563c-.844 0-1.22 0-1.782-.187-.656-.656-.656-1.969 0-2.719.75-.187 3.188 0 3.75.469.375.562.375 1.406-.093 1.875"/><path fill="#29383a" d="M16.313 14.063c.093-.376.562-1.313.75-1.594.75-.188 2.53-.375 3 .187.187.188.656 1.313.656 1.5-.844.844-3.938 1.219-4.407 0 .094 0 .094-.094 0-.094"/><path fill="#29383a" d="M20.25 13.219c.281.281.469.656.563 1.031 0 .375-.094.75-.375 1.031-.563.094-1.032.188-1.407.375-.562-.187-.937-.75-.937-1.312s.375-1.313 1.125-1.406c.281.093.656.187 1.031.28"/><path fill="#29383a" d="M19.313 13.5c.469 0 .844.375.844.75 0 .469-.282.844-.75.844-.47 0-.844-.375-.844-.75s.281-.844.75-.844m-7.031-1.875c.468 1.031.374 2.344 0 3.562-.657.47-2.157.282-2.907-.28C9 13.78 9 12.186 9.75 11.25c.656-.75 1.969-.656 2.531.375"/><path fill="#29383a" d="M12.281 12c.469.844.469 2.438.094 3.469-.75.094-2.25-.094-2.813-.563-.375-.937-.187-2.437.469-3.187s1.781-.656 2.25.281"/><path fill="#29383a" d="M12.375 12.281c.188.47.281.75.281 1.313-.75 1.031-3 1.125-3.187-.75.094-.469.281-.844.562-1.219.656-.656 1.875-.281 2.344.656"/><path fill="#29383a" d="M11.531 12.094c.844 0 1.313.75 1.313 1.5s-.375 1.594-1.219 1.594-1.312-.75-1.312-1.5c0-.657.374-1.594 1.218-1.594"/><path fill="#29383a" d="M11.531 12.75c.375 0 .75.375.75.844s-.281.937-.656.937-.75-.375-.75-.844.281-.937.656-.937"/><path fill="#29383a" d="M11.719 11.906c.375 0 .75.281.75.656 0 .376-.281.657-.75.657-.375 0-.75-.281-.75-.656 0-.376.281-.657.75-.657m8.062.844c.375 0 .75.281.75.656s-.281.656-.75.656c-.375 0-.75-.28-.75-.656 0-.375.375-.656.75-.656"/><path fill="#29383a" d="M14.72 12.187s-.188 2.25.093 3.281c0 0 3.844.938 6.844-.28l.562-2.157s-4.03-1.313-7.5-.844m6.468 3.188c-2.531.937-5.812.093-5.812.093-.282-.843-.094-3.093-.094-3.093 2.906-.375 6.469 1.218 6.469 1.218z"/><path fill="#29383a" d="M14.719 12s-.188 2.53.094 3.562c0 0 3.937 1.031 6.937-.187l.75-2.532c-.094 0-4.312-1.406-7.781-.843m6.469 3.093c-2.532.938-5.813.094-5.813.094-.281-.844-.094-2.812-.094-2.812 2.906-.375 6.563.75 6.563.75zm-5.157-4.406-.375-.187s1.406-2.063 3.188-1.22c1.781.845 1.968 1.876 1.968 1.876s-2.437-2.531-4.78-.469m-8.25 1.969L9 12.187v-.281s-.75-.094-1.219.094z"/><path fill="#b79576" d="m9.75 11.625-1.875.188.563 2.718 1.312.375c-.094 0-.562-2.531 0-3.281"/><path fill="#fcc097" d="M14.156 13.969s.563 1.781.469 3.656l-.094 1.781s2.531-.656 3.281-1.781c.75-1.031 1.5-4.687 1.5-4.687l-1.125-1.032z"/><path fill="#e8bd89" d="M25.313 11.25c-.094 4.594-3.844 7.968-8.437 7.875-4.594-.094-7.5-4.031-7.032-8.625.375-3.844 3.75-7.688 8.344-7.594 4.594 0 7.219 3.75 7.125 8.344"/><path fill="#e8bd89" d="M25.22 10.688c-.095 4.406-4.313 9.656-8.626 9.656S9.563 14.906 9.657 10.5c.093-4.312 2.53-7.312 7.875-7.312 4.312 0 7.78 3 7.687 7.5"/><path fill="#ffd097" d="M21.039 11.708c.05-3.21-2.47-5.852-5.628-5.901-3.158-.05-5.759 2.513-5.809 5.723s2.47 5.852 5.628 5.9c3.158.05 5.758-2.512 5.808-5.722"/><path fill="#63310f" d="M22.781 10.218s.657 2.344-.093 3.375 2.53 1.125 2.53 1.125 1.032-2.719.563-4.125c-.375-1.406-3-.375-3-.375"/><path fill="#d8b18b" d="M20.344 16.594c1.125 0-.844 3.375-2.063 3.937-1.218.469-3.281.657-4.218.282-.938-.375-3.188-3.47-3.563-4.407l-.562-1.218s.187 0 .843.28c1.125.47 3.563 1.407 9.563 1.126"/><path fill="#343f3d" d="M15.844 14.343s1.781-.75 2.906-.281c0 0 .563.469.281.656s-.562.563-.843.281c-.282-.281-1.594-.75-2.344-.656m-4.219-.937s-.562-1.22-1.406-1.126c0 0-.563.188-.563.47 0 .28 0 .656.281.468.282-.187 1.313-.187 1.688.188"/><path fill="#e5895b" d="M9.938 8.344s.562-1.219 2.906-.469l-1.313-2.25s-1.125.938-1.594 2.625"/><path fill="#b79576" d="m19.969 16.688 2.531-1.313.563 1.219s-1.22 2.156-3.938 3.281z"/><path fill="#343f3d" d="m13.5 12.844 1.594.187.094-1.125-1.782-.094z"/><path fill="#63310f" d="M21.094 5.438c-3.469-.843-8.813-1.5-11.157 1.782 1.313.562 4.22 1.218 4.22 1.218L15 7.97c2.813-1.688 6.094-1.125 8.063-.563-.375-.937-1.032-1.687-1.97-1.969"/><path fill="url(#d)" d="M24.282 4.594 23.813 7.5s-4.687-2.344-8.437-.094l-.75.375s-4.032-.375-4.407-1.031c0 0-.937-1.031-.562-2.531 0 0 .469.75.75 1.5 0 0-.188-2.532 1.5-3.469 0 0-.281.281 0 1.406 0 0 2.25-2.718 4.5-2.812 0 0-.844 1.125-.75 2.344 0 0 3.187-1.407 5.906-1.313 0 0-.281.75-.844 1.5 0-.187 1.875.375 3.563 1.219"/><path fill="#63310f" d="M21.563 7.031 20.25 8.625s1.781 2.344 1.781 4.969l3.75-2.25-1.031-4.406s-1.687 0-3.187.093"/><path fill="#343f3d" d="M21.375 12.656c.094 0 1.875-.469 1.875-.469l.094.47-1.875 1.312.093-1.125z"/><path fill="url(#e)" d="M24.563 7.688 21 8.53s.188-.281.563.75h2.343c.094 0 1.032-.375 1.032-.375z"/><path fill="#b85a1b" d="M21.281 1.688s-1.406 1.218-3.187 1.687l3.187.75-3 .844c-.843.093-1.875.468-1.875.468l4.5.188S17.438 6 16.031 7.031c0 0 4.125-1.312 7.782.469l.562-.375.844-2.344S23.344 3.75 22.03 3.656l-.937-.281.468-1.687z"/><path fill="#63310f" d="m25.406 4.969-3.656.281 1.875.75-3.469.469s1.782.093 2.625 1.218l.563.094 1.312-.468z"/><path fill="#b85a1b" d="M9.75 5.906s1.219.75 2.25.75l4.688-.093-1.97 1.125s-3.28-.094-3.937-.563C10.125 6.75 9.75 5.906 9.75 5.906m2.063-3.75s-.376 1.969.28 3.188c0 0-1.03-1.125-1.124-2.438.094-.094.094-.656.844-.75"/><path fill="#ffba7b" d="M15.562 1.125s-2.063.938-2.625 2.063c-.656 1.124-.375 1.874-.375 1.874s.281-1.312 1.031-1.78c.75-.563 1.969-2.157 1.969-2.157m4.125.938c.094 0-2.344.187-3.75 1.406l-2.344 1.875 2.813-1.407c0 .094 2.156-1.687 3.28-1.874"/><path fill="#63310f" d="M23.53 13.594s1.22-1.031 1.875-.938c.657.094 1.594 3.094-.843 3.563s-1.032-2.625-1.032-2.625"/><path fill="#e8bd89" d="M23.343 14.156s1.218-1.687 1.968-1.594c.75.094 1.594 3.657-1.03 4.125-2.532.375-.938-2.53-.938-2.53"/><path fill="#c18053" d="M23.625 13.687s.938-.656 1.406-.563c.469.094 1.125 2.438-.656 2.813s-.75-2.25-.75-2.25"/><path fill="#ce9d67" d="M23.345 13.874s.937-.656 1.406-.562 1.125 2.437-.657 2.812c-1.875.282-.75-2.25-.75-2.25"/><path fill="#343f3d" d="M20.25 15c-.75 0-1.5.282-1.968.563-.75.094-1.125.094-1.688 0-1.312-.75-.937-2.062-.281-3 .281-.375.75-.656 1.219-.562 1.312.093 2.343.375 2.718.562.282.469.657 2.156 0 2.438"/><path fill="url(#f)" d="M20.25 15c-.75.093-1.312.28-1.78.562-.75 0-1.126 0-1.594-.187-.657-.657-.563-1.875 0-2.532.75-.187 2.812 0 3.375.47.375.562.28 1.312-.094 1.687z"/><path fill="#fff" d="M16.406 13.874c.094-.375.469-1.218.75-1.5.75-.187 2.344-.28 2.907.188.093.187.468 1.219.468 1.5-.75.844-3.562 1.125-4.031 0-.094-.094-.094-.188-.094-.188"/><path fill="#343f3d" d="M18.844 12.75c.28.281.468.656.468.938 0 .28-.094.656-.375.937-.562.094-.937.188-1.406.375-.562-.187-.937-.75-.937-1.219 0-.562.374-1.219 1.03-1.312zm-6.282-1.219c.469.938.375 2.25 0 3.375-.656.469-2.156.375-2.812-.094-.375-1.03-.188-2.718.469-3.562.562-.75 1.78-.656 2.343.281"/><path fill="url(#g)" d="M12.562 11.907c.375.844.469 2.344.094 3.281-.656.094-2.156-.094-2.625-.469-.375-.937-.187-2.343.375-3 .656-.75 1.688-.656 2.156.188"/><path fill="#fff" d="M12.656 12.188c.188.375.281.656.281 1.218-.656.938-2.812 1.032-3-.656q.141-.703.563-1.125c.563-.656 1.688-.281 2.156.563"/><path fill="#343f3d" d="M10.875 11.625c.75 0 1.219.75 1.219 1.406s-.375 1.5-1.125 1.5-1.219-.75-1.219-1.406.375-1.5 1.125-1.5"/><path fill="#fffffc" d="M11.531 11.625c.375 0 .656.281.75.563a.64.64 0 0 1-.656.656c-.375 0-.656-.281-.75-.563 0-.281.281-.656.656-.656m6.844.563c.375 0 .656.28.75.562a.64.64 0 0 1-.656.656c-.375 0-.657-.281-.75-.562 0-.281.281-.563.656-.656"/><path fill="#fff" d="M14.813 12.094s-.188 2.063.093 3.094c0 0 3.656.938 6.469-.281l.469-1.969c.093 0-3.75-1.312-7.032-.844m6.093 3c-2.343.938-5.531.094-5.531.094-.187-.75-.094-2.906-.094-2.906 2.719-.375 6.094 1.125 6.094 1.125zm-13.125-3s.282 1.594.657 2.438c0 0 2.53 1.406 5.25.375v-2.719s-4.126-.937-5.907-.094m5.532 2.907c-2.157.843-4.688-.375-4.688-.375-.281-.657-.75-2.72-.75-2.72 1.594-.562 5.344.845 5.344.845z"/><path fill="#343f3d" d="M14.813 11.907s-.188 2.344.093 3.375c0 0 3.656 1.031 6.469-.188l.656-2.343c.094 0-3.937-1.313-7.218-.844m6.093 2.906c-2.343.938-5.531.094-5.531.094-.187-.75-.094-2.719-.094-2.719 2.719-.375 6.188.75 6.188.75zm-13.218-3 .656 2.813s2.625 1.5 5.344.468l-.094-3.187c.094-.094-4.031-.938-5.906-.094m5.625 2.906c-2.25.844-4.688-.281-4.688-.281-.281-.656-.562-2.344-.562-2.344 1.593-.562 5.25.188 5.25.188z"/><path fill="#e8bd89" d="m8.344 12.563 1.125-.376v-.28s-.75-.095-1.125.093z"/><path fill="#8e4028" d="M22.594 15s.28 1.406 1.312 1.688l.094.187-.657.281c-.093 0-.937-.562-.75-2.156"/><path fill="#63310f" d="M13.219 17.438s.375-.375.844-.282c.468.188 3.28.563 4.687-.468 0 0-.094 2.156-1.406 2.718-1.407.563-3.469-.187-3.469-.187z"/><path fill="#bf3f56" d="M14.531 19.125s.094-.844 1.313-1.031l2.344-.469s-.188 1.219-1.032 1.5c-.75.281-2.625 0-2.625 0"/><path fill="#fff" d="M17.906 17.063s-1.218.843-2.343.937-1.594-.375-1.594-.375l-.094-.375s2.063.375 4.031-.187"/><path fill="url(#h)" d="M10.03 9.375s2.25.844 3.47 1.031c1.218.188.656.75 0 .75-.563 0-3.657-.937-3.657-.937s-.094-.656.188-.844"/><path fill="#63310f" d="M10.031 9.375s2.156 1.031 3.375 1.219c1.219.187.656.75 0 .75s-3.656-.938-3.656-.938 0-.75.281-1.031"/><path fill="#b85a1b" d="m16.219 9.656 3.937.938c1.313.187.75.844 0 .844-.656 0-4.125-1.032-4.125-1.032s-.187-.469.188-.75"/><path fill="#63310f" d="M16.219 9.75s2.437 1.219 3.843 1.406c1.407.188.75.844 0 .844-.656 0-4.125-1.031-4.125-1.031s-.093-.938.282-1.219m-3.75 14.719c.281-.094.562.656.75 1.218.094.282.094.657-.094.844l-2.344 2.813c-.094.187-.281.187-.469.187-.374 0-.75-.375-1.03-.75-.188-.375-.188-.843 0-1.125.843-.937 2.812-3 3.187-3.187"/><path fill="#63310f" d="M12.375 24.937c.281-.094.563.562.75 1.125.094.281.094.562-.094.843l-2.156 2.625a.72.72 0 0 1-.469.188c-.375 0-.75-.375-.937-.75-.188-.281-.188-.75 0-1.031.75-.938 2.625-2.813 2.906-3"/><path fill="#63310f" d="M12.375 25.126c.188-.094.469.468.563.937.093.281.093.469-.094.656l-1.594 2.063c-.094.094-.187.187-.375.187-.281 0-.562-.28-.75-.562-.187-.281-.187-.656 0-.844.656-.844 2.063-2.344 2.25-2.437m.938 1.5c.187-.094.374.375.468.75.094.187 0 .375-.094.562l-1.406 1.781c-.094.094-.187.188-.281.188-.281 0-.469-.281-.656-.469s-.094-.562 0-.75z"/><path fill="#63310f" d="M11.438 22.968c.28-.094.656.75.843 1.313.094.375.094.75-.094.937l-2.53 2.906c-.095.188-.282.188-.47.188-.468 0-.843-.469-1.124-.844s-.282-.937 0-1.219c.843-1.03 3-3.187 3.374-3.28"/><path fill="#63310f" d="M11.25 23.344c.281-.094.563.656.844 1.219.094.28.094.656-.094.843l-2.344 2.72a.72.72 0 0 1-.469.187c-.374 0-.75-.47-1.03-.844-.282-.375-.282-.844 0-1.125.75-.844 2.812-2.906 3.093-3"/><path fill="#63310f" d="M11.344 23.53c.187-.093.469.563.656 1.032.094.281.094.562-.094.75l-1.781 2.156c-.094.094-.187.188-.375.188-.375 0-.656-.375-.844-.657a.85.85 0 0 1 0-.937c.656-.844 2.156-2.438 2.438-2.532"/><path fill="#09212f" d="m7.875 24.75 5.906 4.125c.188.188.656.094 1.031-.281l.376-.375c.28-.375.468-.844.28-1.032l-4.5-6z"/><path fill="#707575" d="m14.906 28.031-.281.282c-.187.28-.562.28-.75.187l-5.25-4.125 2.344-2.25 4.125 5.063c.094.28.094.562-.188.843"/><path fill="#7f8282" d="m12.469 26.719 2.062 1.687c-.281.188-.562.188-.75.094l-1.875-1.125z"/><path fill="#63310f" d="M12.469 24.75c.281-.095.562.562.75 1.124.094.282.094.657-.094.844l-2.25 2.719a.72.72 0 0 1-.469.187c-.375 0-.75-.375-.937-.75-.188-.281-.188-.75 0-1.031.75-.937 2.719-2.906 3-3.094"/><path fill="#e5895b" d="M12.281 25.124c.188-.093.469.563.656.938.094.281 0 .562-.093.75l-1.969 2.343c-.094.094-.281.188-.375.188-.375 0-.656-.375-.844-.656a.85.85 0 0 1 0-.938c.656-.843 2.438-2.531 2.625-2.625"/><path fill="#ffd097" d="M12.375 25.22c.188-.094.375.468.563.843.093.188.093.469-.094.563l-1.5 1.875c-.094.093-.188.187-.281.187-.282 0-.563-.281-.657-.562-.187-.188-.187-.563 0-.75.469-.657 1.781-2.063 1.969-2.157"/><path fill="#63310f" d="M13.313 26.25c.187-.093.468.47.562.938.094.281 0 .469-.094.656l-1.594 1.875c-.093.094-.562.282-.75.282-.28 0-.562 0-.75-.282-.187-.28-.187-.656 0-.843.75-.844 2.344-2.532 2.626-2.625"/><path fill="#e5895b" d="M13.22 26.532c.187-.094.375.375.562.75.094.187 0 .468-.094.656l-1.5 1.594c-.093.093-.187.187-.28.187-.282 0-.845.094-1.032-.187-.188-.188-.094-.563 0-.75z"/><path fill="#ffd097" d="M13.219 26.626c.094-.094.281.374.469.656.093.187 0 .375-.094.468l-1.219 1.594c-.094.094-.187.094-.281.094-.188 0-.375-.187-.563-.469a.8.8 0 0 1 0-.656c.375-.469 1.5-1.594 1.688-1.687"/><path fill="#63310f" d="M11.438 23.344c.28-.094.656.656.843 1.219.094.28.094.656-.094.937L9.75 28.313c-.094.187-.281.187-.469.187-.469 0-.844-.469-1.031-.844-.281-.375-.281-.843 0-1.125.75-1.03 2.906-3.093 3.188-3.187"/><path fill="#e5895b" d="M11.344 23.624c.281-.093.562.563.75 1.125.094.282.094.563-.094.75l-2.156 2.438a.72.72 0 0 1-.469.187c-.375 0-.75-.375-.937-.75-.188-.281-.188-.75 0-1.031z"/><path fill="#ffd097" d="M11.344 23.813c.187-.094.469.469.562.938.094.187.094.468-.094.656l-1.5 1.969c-.093.093-.187.187-.28.187-.282 0-.563-.375-.75-.562-.188-.282-.188-.657 0-.844.468-.844 1.874-2.25 2.062-2.344"/><path fill="#63310f" d="M13.782 22.406c.188.093.656.843.469 1.406-.094.375-.281.562-.563.656l-2.25.656c-.187 0-.28 0-.375-.093-.187-.282-.093-.938 0-1.5.094-.47.375-.844.657-.938 1.03-.281 1.78-.281 2.062-.187"/><path fill="#e5895b" d="M13.406 23.063c.188.094.563.281.469.75a.96.96 0 0 1-.469.563l-1.875.562c-.094 0-.281 0-.281-.094-.187-.28-.094-.75-.094-1.125.094-.375.281-.656.563-.75.844-.28 1.5 0 1.687.094"/><path fill="#ffd097" d="M13.5 22.688c.188.094.563.563.47 1.032a.96.96 0 0 1-.47.562l-1.593.375c-.094 0-.187 0-.281-.094-.188-.28-.094-.75 0-1.125s.281-.656.562-.75c.75-.187 1.125-.093 1.313 0"/><path fill="#09212f" d="M7.219 24.656a3.844 3.844 0 1 0 0-7.687 3.844 3.844 0 0 0 0 7.687"/><path fill="#7f8282" d="M7.219 24.188a3.375 3.375 0 1 0 0-6.75 3.375 3.375 0 0 0 0 6.75"/><path fill="#707575" d="M7.313 23.531a3.094 3.094 0 1 0 0-6.187 3.094 3.094 0 0 0 0 6.187"/><path fill="#9ca3a3" d="M7.313 22.031a2.344 2.344 0 1 0 0-4.687 2.344 2.344 0 0 0 0 4.687"/><path fill="#09212f" d="M10.031 18c-.187-.188-.469-.282-.844-.188.282.656-.468 2.156-1.78 3.375s-2.72 1.781-3.376 1.594c0 .281 0 .469.188.656.562.563 2.25-.187 3.937-1.594 1.5-1.593 2.438-3.28 1.875-3.843"/><path fill="#09212f" d="M10.594 18.093c-.188-.187-.469-.28-.844-.187.375.75-.469 2.25-1.969 3.656-1.406 1.313-2.906 1.969-3.656 1.688 0 .28 0 .562.188.656.562.656 2.437-.188 4.218-1.781 1.781-1.594 2.625-3.375 2.063-4.032"/><path fill="#707575" d="M10.219 18.281c-.094-.094-.281-.187-.469-.094.094.75-.656 2.156-2.062 3.375-1.22 1.125-2.532 1.781-3.375 1.781 0 .094 0 .188.093.188.469.469 2.063-.281 3.657-1.781 1.687-1.5 2.624-3 2.156-3.469"/></g></g></g><defs><linearGradient id="d" x1="9.489" x2="24.146" y1="5.084" y2="3.631" gradientUnits="userSpaceOnUse"><stop stop-color="#f38c05"/><stop offset="1" stop-color="#b85a1b"/></linearGradient><linearGradient id="e" x1="20.9" x2="24.787" y1="8.779" y2="8.394" gradientUnits="userSpaceOnUse"><stop stop-color="#f38c05"/><stop offset="1" stop-color="#b85a1b"/></linearGradient><linearGradient id="f" x1="18.297" x2="18.304" y1="14.462" y2="15.273" gradientUnits="userSpaceOnUse"><stop stop-color="#bdd6de"/><stop offset="1" stop-color="#fff"/></linearGradient><linearGradient id="g" x1="11.217" x2="11.147" y1="14.155" y2="14.908" gradientUnits="userSpaceOnUse"><stop stop-color="#bdd6de"/><stop offset="1" stop-color="#fff"/></linearGradient><linearGradient id="h" x1="13.89" x2="10.016" y1="9.605" y2="10.659" gradientUnits="userSpaceOnUse"><stop stop-color="#f38c05"/><stop offset="1" stop-color="#b85a1b"/></linearGradient><clipPath id="a"><path fill="#fff" d="M0 0h30v30H0z"/></clipPath><clipPath id="b"><path fill="#fff" d="M0 0h30v30H0z"/></clipPath><clipPath id="c"><path fill="#fff" d="M0 0h30v30H0z"/></clipPath></defs></svg>