<svg xmlns="http://www.w3.org/2000/svg" fill="none" aria-label="Site favicon" viewBox="0 0 500 500"><g fill="currentColor"><path fill="#0f9db6" d="M33.7 28.7c-.4.3-.7 65.5-.7 144.8 0 128.9-.2 144.7-1.6 148-2.7 6.7-7.4 25.8-8 33l-.6 7 5.1 5 5.1 4.9V467h435l-.2-219.2-.3-219.3-216.6-.3c-119.1-.1-216.9.1-217.2.5M462 248v213H228.4l-1.2-14.8c-2.5-30.4-9.7-56.6-24.1-87.5-2.4-5.3-4.1-10.4-4.1-12.5 0-4.7 5.6-34.7 7.2-38.7.7-1.7 2.9-6 4.9-9.6 9.9-17.5 8.9-27.9-4.3-43-8.1-9.4-9.8-11.9-9.8-14.4 0-4.4-3.2-12.7-6.2-16.1-4-4.6-7.5-6.2-23.7-11.3l-13.4-4.3.6-9.6c.5-8.4 4.3-25.1 6-26.9.3-.3 4.6.4 9.5 1.6s11.7 2.4 15 2.7c5.6.6 6.2.5 8.6-1.9 2-2 2.6-3.6 2.6-6.8 0-2.5.8-5.5 2.1-7.6 1.2-1.8 1.9-4.2 1.6-5.3s.3-2.6 1.5-3.7c1.5-1.3 1.9-2.6 1.5-5-.5-2.8-.2-3.4 2.9-5.2 4.9-2.9 5.1-4.5 1.2-10.4-6.4-9.6-6.5-9.9-6.2-25.7.1-8 .7-15.8 1.3-17.3 4.1-10.8-3-20.4-19-25.7-18.9-6.2-40.4-8.5-51.9-5.6-12.9 3.3-23.6 10.9-29.5 21-3.6 6.2-4.4 9.5-5.5 22.4-.6 6.2-1.4 12.1-2 13.2-.5 1-3.2 2.6-6 3.5-9.4 3.1-14 8.8-14 17.3 0 14.6 16 27.2 36.8 28.9 8.4.7 8.3.3 5.1 12.6-4.2 16.9-14.2 32.2-23.9 36.9-1.9.9-6 2.8-9 4.2-14.4 6.7-22 19.3-35.1 58.6-2.7 8-5.7 16.7-6.8 19.5l-2 5-.1-132.3V35h423zM191.6 85.3c4.3 6.5 4.7 9.1 4 22.1-.7 13.6-.1 16.1 5.5 24.3 1.6 2.3 2.9 4.5 2.9 5s-1.3 1.4-3 2c-2.7 1-3 1.5-3 5.6 0 4.4 0 4.5-5.2 6.7l-5.2 2.2 2.8 2.5c2.5 2.1 2.7 2.7 1.7 5.1-.5 1.5-1.2 4.3-1.3 6.2-.3 3.3-.6 3.5-4 3.8-5 .4-17.4-3.2-27-7.7l-7.7-3.7-1 5c-2.5 12.1-3.3 19.8-3.4 31.1-.1 12.8 1 18.8 4.3 22.7l2 2.3-.6-2.8c-.7-3.3-.6-3.3 7.5-.5 6.4 2.3 6.4 2.3 9.7 9.3 3.8 8.2 8.4 22.6 8.4 26.1 0 1.3-.5 2.4-1.2 2.4-2.1 0-29.1-14.5-47.8-25.8-10.2-6.1-21-12-24.1-13.2l-5.6-2.2 5.6-5.6c9.1-9.2 15.5-23.9 17.6-40.3.7-5.4.7-5.4 6-7.8 3.3-1.4 7.4-4.4 10.5-7.6 5.1-5.5 6.1-7.5 3.6-7.5-2.2 0-5.7-5.1-5.4-7.8.2-1.7 1.3-2.7 3.9-3.6 9.4-3.2 16.5-13.4 17.6-25.1l.6-6.5h3.2c7.6 0 19-8.3 23-16.7.9-1.8 1.9-3.3 2.3-3.3s1.6 1.5 2.8 3.3m-93.2 139c8.7 5.3 13.1 16.6 12.3 31.6-.6 11.5-3.4 19.7-8.8 25.3-3.5 3.7-6.6 5.1-5.6 2.5 1-2.7 3.8-17.9 3.4-18.3-.8-.8-9.6 15.5-27.1 49.9-9.1 18-16.6 33-16.6 33.2s3 2.8 6.8 5.8c3.7 3 14.8 12.5 24.7 21.2 21.4 18.8 27 22.7 32.2 22.8 2.2.1 9.4-1.9 16.9-4.6l13.1-4.8 10.9 4.3c8.5 3.4 10.3 4.4 8.1 4.6-1.5.2-6.1-.6-10.1-1.8s-8.3-2-9.7-1.8c-1.9.4-.4 1.4 7.6 5.3 11.3 5.4 18.8 10.2 18 11.5-.6 1-1.8.7-9.5-2.8-9-4-14.3-5.9-18.5-6.7-5.4-.9-4.2 0 8.2 6.5 10 5.2 13.5 8 9.9 8-.8 0-4.9-1.3-9.1-3-8.1-3.2-11.3-3.6-19.5-2-13 2.5-13.3 2.4-39.8-10.9-13.4-6.7-28.4-14.7-33.4-17.8-11.1-6.8-32.4-22.6-33-24.4-1.1-3.3 5.3-25.4 15-52.4 3.4-9.4 8.9-25.1 12.3-35 7.8-22.9 13.5-34.7 19.7-41 7.7-7.9 14.4-9.5 21.6-5.2M112 325.7c11.2 16.9 20.6 31.9 20.8 33.3.2 1.7-1 4.3-4.1 8.5-3.6 5-6.3 9.3-13.4 21.3-.9 1.4-6.4-3.1-35-28.6l-16-14.3 6.1-11.3c3.4-6.2 9.2-17.7 13.1-25.5 3.8-7.7 7.2-14.1 7.5-14.1s9.8 13.8 21 30.7m-70.5 51.2c1.9 3.2 38.5 23.4 57.3 31.6 4.9 2.2 6.1 3.2 5.6 4.4-3.3 7.6-8.4 34.3-8.4 44.1v4H39v-42.5c0-39.1.3-45 2.5-41.6"/><path fill="#0f9db6" d="M373.8 81c-8.6 1-14 6.8-14.6 15.7-.5 8.4 2.3 13.2 12.3 20.8 4.3 3.3 8.7 7.4 9.7 9 4.1 6.8.8 13.5-6.6 13.5-5.1 0-9.6-2.9-12.5-8-1.2-2.2-2.6-4-3.2-4-.5 0-.9 3.6-.9 7.9v7.9l4 1.6c5.6 2.2 16.4 2.1 21.6-.3 7.3-3.3 11.1-10.6 10.1-19.3-.8-6.6-3.5-10.7-10.5-15.8-12.8-9.5-15.1-12.9-12.7-18.5 1.3-3.2 1.8-3.5 5.4-3.5 5.4 0 8.2 1.4 11 5.6 1.3 1.8 2.7 3.4 3.2 3.4s.9-3.1.9-6.9c0-5.6-.3-7-1.7-7.6-3.5-1.3-10.9-2-15.5-1.5m41.5 0c-12.7 3-17 17.6-8.6 28.8 1.3 1.8 5.7 5.7 9.6 8.7 10.7 8 13.3 14 8.2 19-4.9 5-14.3 2.3-18.7-5.4-1.3-2.3-2.6-4.1-3-4.1-1 0-1 14.2 0 15.6 2 3.1 15 4.5 22.1 2.4 3.9-1.1 8.6-5.2 10.7-9.3 2-3.7 2-13.7.1-17.3-1.7-3.3-7.1-8.5-13.7-13.4-6.4-4.7-9-8-9-11.5 0-4 1-5.4 4.6-6.4 4.4-1.2 9.5 1.2 12.5 5.8 1.3 2.2 2.7 3.7 3.2 3.4.4-.2.7-3.5.7-7.3v-6.8l-3.2-1c-5-1.6-11.9-2.1-15.5-1.2m-151 .7c-6.4.4-7.5 1.1-4.8 3.3 1.8 1.5 1.9 7.8.1 35.7-1.1 19.1-1.3 20.4-3.6 22.8l-2.3 2.5H269l-1.6-2.5c-1.4-2.2-1.5-4.8-.9-21.8l.8-19.2 2.2 5c1.2 2.7 4.8 12.1 8 20.8 3.2 8.6 6.4 16.5 7.1 17.5 1.1 1.5 1.4 1.5 2.7.2.8-.8 4.9-11 9.2-22.5 4.3-11.6 8.1-21.4 8.5-21.8s1 5.4 1.3 12.9c1 20.9.9 26.7-.8 29-.8 1.2-1.3 2.3-1.1 2.5.3.2 4.6.3 9.6.1 9.2-.3 9.2-.4 7.3-2.4-1.6-1.8-1.9-5-2.7-29.4-.8-24.8-.7-27.6.8-29.2.9-1 1.6-2.2 1.6-2.5 0-.4-3.6-.7-7.9-.7h-7.9l-4 10.2c-2.1 5.7-5.7 14.9-7.8 20.5-2.1 5.7-4.1 10.3-4.4 10.3s-3.4-7.8-7-17.3c-6.9-18.7-9.6-24.8-10.8-24.5-.4.1-3.5.3-6.9.5m67.5 2.6c2.1 2.3 2.2 3 2.2 29.6v27.2l-2.4 2.4c-1.3 1.3-2.1 2.6-1.8 2.9.7.8 18.7.7 19.5 0 .3-.4-.2-1.7-1.2-3-1.7-2.1-1.8-4.6-1.7-29.3.1-24.1.3-27.1 1.9-28.8.9-1.1 1.7-2.3 1.7-2.6 0-.4-4.6-.7-10.2-.7h-10.1zM262 161.9c0 .6.5 1.3 1 1.6 1.9 1.2 1 5.6-6.1 27.7-8.6 27.4-8.7 27.6-11.1 28.9-1 .5-1.6 1.4-1.3 2 .6.9 15.5 1.3 15.5.4 0-.3-.9-1.8-2-3.3-1.8-2.5-1.8-3.1-.7-7.7l1.3-5 8.7-.3c8.7-.3 8.7-.3 9.8 2.5 2 5.2 2.2 9.8.5 11.2-.9.7-1.6 1.7-1.6 2.2s5 .9 11.1.9h11.1l-2.8-3.3c-2.3-2.5-4.7-9.2-11.4-31l-8.5-27.7h-6.7c-3.8 0-6.8.4-6.8.9m9.4 26.8c1.4 5.1 2.6 9.7 2.6 10.2 0 .7-2.6 1.1-6.6 1.1-5.8 0-6.6-.2-6.1-1.8 3-10.7 6.3-20 6.8-19.4.4.4 1.9 4.8 3.3 9.9m16.3-25.5c3.5 3.9 5.4 8.5 13.8 34.3l8.1 25h7.6l8.9-26c4.9-14.3 10-28.1 11.3-30.8l2.3-4.7H326l1.5 2.4c1.6 2.3 1.3 3.4-4.6 22-3.4 10.8-6.5 19.6-6.8 19.6s-3.2-8.7-6.4-19.4c-5.3-17.7-6-22.6-3.6-22.6.5 0 .9-.5.9-1 0-.6-4.2-1-10.7-1h-10.6z"/><path fill="#b60f33" d="M343 161.6c0 .3.7 1.2 1.5 2 1.3 1.3 1.5 5.8 1.5 27.8 0 25-.1 26.4-2 28.1-3.8 3.4-2.5 3.8 10.3 3.2 16.3-.8 21.6-2.4 28.2-9 4.1-4.2 5.5-6.4 6.8-11.3 5.5-19.5-3.2-36.4-20.6-40.1-6.1-1.2-25.7-1.8-25.7-.7m24.3 6.8c6.9 2.9 9.5 8 10.4 20.1 1.2 17.9-4.9 28.5-16.7 28.5h-3v-50h3c1.7 0 4.5.6 6.3 1.4m28.7-6.5c0 .5.7 1.4 1.5 2.1 1.3 1 1.5 5.4 1.5 27.5 0 25-.1 26.4-2.1 28.9l-2 2.6h10c5.6 0 10.1-.3 10.1-.8 0-.4-.9-1.5-2-2.5-1.9-1.6-2-2.7-1.8-13.5l.3-11.7 8.6-.3 8.6-.3.6 3.6c.3 2 .5 7.4.4 12-.2 6.3-.6 8.8-1.9 10.2-1 1.1-1.8 2.3-1.8 2.6 0 .4 4.3.7 9.5.7s9.5-.3 9.5-.6-.9-1.7-2-3.1c-1.9-2.4-2-4.1-2-27.3s.1-24.9 2-27.3c1.1-1.4 2-2.8 2-3.1s-4.3-.6-9.5-.6-9.5.3-9.5.7c0 .3.6 1.4 1.4 2.2 1 1.1 1.5 5.1 1.8 12.8l.4 11.3H411v-10.8c0-9.6.2-11.1 2-12.7 1.1-1 2-2.2 2-2.7 0-.4-4.3-.8-9.5-.8s-9.5.4-9.5.9"/><path fill="#ff6900" d="M280.4 240.5c-15.3 3.3-31.4 13.2-40.9 25.2-5.8 7.4-13 21.9-14.9 30.3-5 21.5-1.1 42.9 10.9 60.1l4.4 6.3-2.2 3c-1.2 1.7-4.5 6.4-7.5 10.4-3 4.1-5.2 7.5-5 7.7s5.5-2.4 11.8-5.9l11.5-6.4 3.5 2.8c16.1 12.7 39.7 17.8 60.3 13.1 34.5-8 58-35.5 59.4-69.6.6-13.4-1.1-22.6-6.3-33.6l-3.6-7.7 1.9-2.9c3.6-5 18.6-32.4 18.1-32.9-.3-.2-8.3 3.4-17.9 8l-17.4 8.4-4.9-3.5c-7.4-5.3-17.7-10.2-26.3-12.3-9-2.4-25.4-2.6-34.9-.5m32.8 7.4c11.4 2.9 28.3 12.1 26.1 14.1-2.6 2.4-34.7 19-35.3 18.3-.4-.4-1.5-5.3-2.4-10.8-2.5-15.2-2.7-15.2-5.2-1-1.3 7.1-2.6 14.4-2.9 16.1-.4 2.3-1.5 3.5-4.9 5.1l-4.4 2.2-11.8-8.2c-9.8-6.7-11.6-7.6-10-5.2 1.1 1.7 4.7 7.2 8.2 12.3 6.2 9.3 6.2 9.4 4.6 12.5-.8 1.8-1.6 3.3-1.7 3.5-.1.1-8 1.6-17.6 3.2-20.6 3.6-20.5 3.6-15.4 4.4 16.7 2.9 27.1 5 27.9 5.7.5.4-.7 2.9-2.6 5.6-12.9 17.9-21.1 28.8-21.7 29-1 .4-6.8-8.6-9.4-14.7-8.4-19.2-6.7-41.7 4.5-60.8 5.4-9.2 18-21.3 26.8-25.5 15.4-7.6 32.2-9.6 47.2-5.8m34.3 29.8c-15.1 19.8-29.9 38.2-30.7 38.3-.5 0-.8-1.5-.8-3.4 0-4.8-1.6-8.6-5.2-12.3-1.8-1.8-2.9-3.5-2.5-3.9 1.6-1.7 48.2-32.3 48.5-31.9.2.2-4 6.2-9.3 13.2m16.1 23.1c4.4 22.8-1.9 43.5-18.1 59.7-8.9 8.9-15.7 13.3-26.7 17.3-6.7 2.5-8.5 2.7-22.8 2.7-14.8 0-15.8-.1-22.5-2.9-7.6-3.1-17.5-9.1-17.5-10.4 0-.5 6-4.2 13.3-8.2 7.2-4 15.5-8.6 18.3-10.2l5.2-2.8 1.1 6.5c.6 3.6 1.6 9.4 2.2 13.1.6 3.6 1.3 6.3 1.6 6.1.2-.3 1.4-7 2.7-15.1s2.5-14.8 2.7-15c.2-.1 2.4-1.4 4.9-2.8l4.5-2.5 11 7.8c6 4.2 11.1 7.6 11.3 7.4s-2.9-5.1-6.8-11l-7.1-10.6 3.8-4.6c2.1-2.6 4-5 4.3-5.5.5-.7 11.5-3.2 23.4-5.2 2.1-.4 3.6-.9 3.4-1.1-.1-.2-4.1-1.1-8.8-2-4.7-1-8.6-1.9-8.8-2-.2-.2 4.1-6.2 9.5-13.5l9.8-13.3 2.3 5.4c1.3 3 3 8.7 3.8 12.7m-61.1 1.6c6.8 2.9 9.5 11.8 5.5 18.3-3.7 6.1-11.8 8.1-17.4 4.4-4-2.7-5.5-5.7-5.6-11.2 0-5.4 2.6-9.4 7.4-11.5 4-1.7 5.9-1.7 10.1 0m-17.3 34.4c-4.6 3.3-30.2 21.3-34.5 24.2-3.1 2.1 4.5-6.9 16.6-19.7 5.7-6 11.2-11.9 12.2-13l1.8-2.1 4.3 3.6 4.4 3.6z"/><path fill="red" d="M292.7 309.8c-3.8 4.2-.8 10.2 5 10.2 3.7 0 5.6-2.1 5.6-6.2 0-5.3-7-8-10.6-4"/><path fill="#fff" d="M402.3 413.1c-.8.8-4.1 1-9.7.7l-8.6-.4v6.6c0 3.8.5 7.1 1.2 7.8s4 1.2 8 1.2c6.1 0 6.8.2 6.8 2 0 1.9-.7 2-10.2 2.2-5.7.1-8.7.3-6.6.5 2.9.3 3.8 1 4.8 3.4.8 1.9 2.7 3.6 5.6 4.9 2.4 1 4.4 2.4 4.4 2.9 0 1.5 4.3 1.4 5.8-.1.7-.7 1.2-3.4 1.2-6V434h4.3l4.2-.1-2.4-2c-2.2-1.8-2.5-1.8-4.2-.3s-1.8 1.5-1.6-.5c.1-1.4.8-2.1 2.3-2.1 1.2 0 2.8-.7 3.5-1.6 1.1-1.3 1-1.7-.4-2.5-.9-.6-1.7-1.7-1.7-2.6 0-1.1-.4-1-1.7.6-1.6 2-2.6 2.2-9.7 1.9-5.6-.2-8.1-.7-8.4-1.7-.4-1.1 1.2-1.3 8.4-1l8.9.4.6-3.7c.4-2.8.2-4.2-1.1-5.3-2-1.8-2.3-1.8-3.7-.4m-.3 4.9c0 1.8-.7 2-6.5 2s-6.5-.2-6.5-2 .7-2 6.5-2 6.5.2 6.5 2m-2 19.4c0 1.9-.4 3.7-.8 4-1.7 1-5.1-.7-5.4-2.7-.2-1.2-1.4-2.7-2.8-3.4-2.3-1.2-2-1.3 3.3-1.3h5.7zm21.6-22.9q-.75 2.7-2.1 2.1c-1.2-.4-1.5.6-1.5 5.4 0 3.8-.4 6-1.1 6-.8 0-.8.4.1 1.5 1.2 1.5.6 9.7-1.1 14.2-.5 1.3-.5 2.3 0 2.3 1.3 0 5.1-6.4 5.2-8.6 0-1.1.3-1.4.6-.7.2.7 1.1 1.3 1.9 1.3s1.4.7 1.4 1.5-.4 1.5-1 1.5c-1.8 0 .3 3.2 2.7 4.1 5.4 2 10.3-4.3 10.3-13.4 0-4.4.3-5.7 1.5-5.7s1.5 1.7 1.5 9.5v9.5h4.4c5.1 0 5.7-1 4-6-.7-1.9-1.3-2.7-1.3-1.8-.1.9-.6 2-1.2 2.4-.7.4-1-1.7-.7-6.8.3-6.8.1-7.7-1.9-9.2s-2.3-1.5-3.1 0c-.9 1.6-2.3 1.6-6.4-.1-1.6-.6-1.8.1-1.9 7.1 0 4.4-.4 8.8-.9 9.9-.6 1.3-.9-2.4-.8-10.4 0-10.6-.2-12.5-1.6-13.3-1.1-.6-2.2-.6-3.2.2-.7.7-1.4.9-1.4.5s1-1.5 2.3-2.6c1.8-1.5 1.9-1.8.5-1.9-.9 0-2.3-.3-3.1-.6q-1.5-.45-2.1 2.1m3.4 6.1c0 1.4-.3 1.4-1.5.4-.8-.7-1.5-1.4-1.5-1.6s.7-.4 1.5-.4 1.5.7 1.5 1.6m0 6.5c0 .5-.7.9-1.5.9s-1.5-.7-1.5-1.5c0-.9.6-1.2 1.5-.9.8.4 1.5 1 1.5 1.5m0 4c0 1.8-.2 1.9-1.5.9-.8-.7-1.5-1.6-1.5-2.1s.7-.9 1.5-.9c.9 0 1.5.9 1.5 2.1m10-18.1c0 2.4 2.1 6 3.5 6 2.1 0 3-2.7 1.6-4.4-1.4-1.6-5.1-2.8-5.1-1.6"/><path fill="#b60f33" d="M283.1 414.8c-1.2 2.2.3 4.2 3 4.2 2.2 0 3.3-2.8 1.8-4.6-1.6-1.9-3.6-1.7-4.8.4M244 417c0 .5.7 1 1.5 1 1.2 0 1.5 1.9 1.5 11.3 0 10.8-.1 11.4-2.2 12.5-2 .9-1.5 1.1 3.2 1.1s5.2-.2 3.3-1.1c-2.1-1-2.3-1.7-2.3-10.5 0-5.1.2-9.3.4-9.3s2.1 4.7 4.2 10.5c2.2 5.8 4.4 10.5 5 10.5s2.9-4.8 5-10.6l3.9-10.7.3 9.4c.2 7.9 0 9.6-1.5 10.6-1.4 1.1-.6 1.3 5.3 1.2 5.1 0 6.3-.3 4.7-.9-2.2-.9-2.3-1.4-2.3-12.3 0-10.8.1-11.5 2.3-12.5 1.9-1 1.4-1.1-3.2-.9l-5.4.2-2.9 8c-1.6 4.4-3.2 8.3-3.7 8.7-.4.5-2.2-3.3-4-8.2l-3.4-9h-4.9c-2.6 0-4.8.4-4.8 1"/><path fill="#0f9db6" d="M335.6 428.2c-2.1 6.8-4.6 12.8-5.5 13.5-1.3 1-.9 1.2 2.8 1.3 3.9 0 4.3-.2 2.7-1.3-1.3-.9-1.6-2-1.1-4 .6-2.4 1.2-2.7 5-2.7 3.9 0 4.4.3 5.3 3 .9 2.4.8 3.1-.6 4-1.3.7 0 .9 4.7 1 6.1 0 6.3-.1 4.3-1.8-1.2-1-3.6-6.6-5.8-13.5-3.2-9.9-4.2-11.7-5.9-11.7s-2.6 1.9-5.9 12.2m6.8 2.5c.7 2.1.4 2.3-2.8 2.3-2 0-3.6-.1-3.6-.3s.7-2.8 1.6-5.8l1.7-5.4 1.2 3.5c.7 1.9 1.5 4.5 1.9 5.7m10.1-13.1c1.1.8 3.7 6.4 6.1 13.2 5.7 16.1 6.7 16.1 11.8.5 2.4-7.5 4.6-12.4 6-13.5 2.1-1.7 2-1.8-2.7-1.8-3 0-4.6.4-4.2 1 .3.5 1.2 1 1.9 1 1 0 .7 2.1-1.2 8.5-1.4 4.7-2.9 8.5-3.3 8.5s-2-3.7-3.5-8.2c-2.6-7.8-2.6-8.2-.8-9.5 1.5-1.1.9-1.3-5.2-1.3-6.4.1-6.7.2-4.9 1.6"/><path fill="#fff" d="M443.2 418c-.9 1.4-2.6 2-6.9 2.3-4.2.2-3.2.4 3.5.5 9.6.2 11-.5 6.6-3.4-1.7-1.2-2.1-1.1-3.2.6m-159.7 5.7c-2.8.7-4.3 2.3-2.2 2.3 2.6 0 2.5 14.4 0 15.9-1.4.8-.3 1 4.2 1 3.3 0 5.4-.3 4.8-.6-.9-.3-1.3-3.3-1.3-9.9 0-10.1 0-10-5.5-8.7m12.7.9c-2.2 1.5-2.9 5.7-1.4 8.1.4.6 2.6 1.9 5 2.8 3.4 1.4 4.2 2.2 4 3.9-.2 1.5-1.1 2.2-3.4 2.4-2.7.3-3.3-.1-3.8-2.2-.6-2.4-2.6-3.7-2.6-1.7 0 .5-.3 1.6-.6 2.4-.4 1.1.5 1.8 3.1 2.6 7.2 2 13-1.1 12.3-6.6-.2-2.2-1.3-3.3-4.7-5-5.9-3-6.7-3.9-5.1-5.8 1.9-2.3 4.9-1.8 6 1 .5 1.4 1.4 2.5 2 2.5 1.6 0 1.1-4.7-.6-5.4-2.9-1.1-7.9-.6-10.2 1m18 0c-2.7 1.9-2.9 6.4-.4 8.6.9.9 3.1 2 4.7 2.5 2.2.7 3 1.6 3 3.4 0 1.9-.6 2.5-2.7 2.7-2.2.3-3-.2-3.8-2.2-1.3-3.4-3.2-3.3-2.8.1s4.6 4.7 10.1 3.2c7.5-2 6.7-9.7-1.4-12.4-2.6-.9-3.4-1.7-3.4-3.6 0-3.6 4.1-3.9 5.7-.5.6 1.4 1.5 2.6 2 2.6 1.5 0 .8-4.8-.8-5.4-2.9-1.1-7.9-.6-10.2 1"/><path fill="#b60f33" d="M176.4 103.4c-4.7 2.1-5.1 3.5-.7 2.6 3.9-.9 12.8.3 14.8 2 1.3 1.1 2.5.3 2.5-1.6 0-3.7-10.6-5.6-16.6-3m9.8 13.2c-.8 1.3-1.9 1.6-6.1 1.2-5.7-.6-6.1-.1-2.8 2.9 3.1 2.8 6.1 4.3 9 4.3 2.3 0 2.4-.2 1.9-4.8-.6-5.6-.7-5.9-2-3.6"/></g></svg>