<svg xmlns="http://www.w3.org/2000/svg" width="30" height="30" fill="none" viewBox="0 0 30 30"><g clip-path="url(#a)"><g clip-path="url(#b)"><g clip-path="url(#c)"><path fill="#8e4028" d="M10.313 19.219s.562 2.718.187 5.437l-.375 2.532s3.75-.657 5.063-2.063 2.906-6.656 2.906-6.656l-1.5-1.688z"/><path fill="#8e4028" d="M27 16.406c-.75 6.75-6.844 11.531-13.594 10.781s-10.5-6.844-9.187-13.5C5.25 8.062 10.875 2.812 17.625 3.656s10.219 6 9.375 12.75"/><path fill="#8e4028" d="M26.907 16.031c-.75 6.469-7.688 13.5-13.969 12.844s-9.469-9-8.719-15.469C4.875 7.125 9.094 2.156 16.875 3c6.282.75 10.782 6.562 10.032 13.031"/><path fill="#8e4028" d="M20.495 16.884c.543-4.733-2.727-8.995-7.306-9.521-4.578-.526-8.73 2.884-9.273 7.617-.544 4.732 2.727 8.995 7.305 9.52 4.578.527 8.73-2.884 9.274-7.616"/><path fill="#8e4028" d="M23.344 15s.562 3.563-.563 4.97c-1.125 1.405 3.563 2.062 3.563 2.062s1.875-3.75 1.5-5.907-4.5-1.125-4.5-1.125m-4.5 9c1.593.094-1.688 4.875-3.563 5.438s-4.969.469-6.281-.188c-1.313-.656-4.125-5.53-4.5-7.03l-.75-2.72s.375.282 1.312.844c1.5.844 5.063 3.188 13.782 3.656m-6.188-4.03s2.719-.845 4.313 0c0 0 .75.843.28 1.03-.468.282-.937.75-1.312.282-.375-.375-2.156-1.313-3.28-1.313M6.562 18S6 16.22 4.687 16.125c0 0-.937.282-.937.657s-.094.937.375.75 1.969 0 2.437.468"/><path fill="#8e4028" d="m18.281 24.094 3.844-1.594.656 1.875s-2.156 3-6.281 4.219zM9.47 17.53l2.25.47.281-1.5-2.531-.563zm3.562-2.906s1.781-1.312 3.938-.656 3.843 2.625 2.812 3-1.593-.469-1.968-1.219c-.47-.75-2.063-1.406-3.75-.094 0-.093-.844-.375-1.032-1.03m8.532-6.75C16.688 6.094 9.28 4.781 5.343 9.281c1.876 1.032 5.626 1.97 5.626 1.97l1.312-.563c4.406-2.063 9.094-.844 11.907.375-.375-1.5-1.313-2.72-2.625-3.188"/><path fill="#8e4028" d="m26.437 7.031-1.125 4.125s-6.468-4.031-12.28-1.406l-1.126.469S6 9.094 5.625 7.969c0 0-1.219-1.688-.469-3.75 0 0 .656 1.218.844 2.25 0 0 .094-3.75 2.719-4.875 0 0-.375.375-.188 1.968 0 0 4.781-3.562 8.156-3.468 0 0-1.5 1.312-1.5 3.093 0 0 3.844-1.5 7.782-.937 0 0-.47 1.125-1.407 2.062-.093.094 2.438 1.22 4.875 2.72"/><path fill="#8e4028" d="m22.125 10.219-2.156 2.156s2.25 3.75 1.781 7.5l5.719-2.719-.938-6.562c.188-.094-2.25-.375-4.406-.375"/><path fill="#8e4028" d="M20.906 18.469C21 18.469 23.72 18 23.72 18l.093.75-2.906 1.594.282-1.594zm5.344-6.844-5.344.656s.375-.375.75 1.219l3.469.281c.188 0 1.781-.375 1.781-.375zm-3.844-9.281s-2.25 1.594-4.968 2.062l4.593 1.5-4.593.75c-1.313.094-2.813.375-2.813.375l6.563.938s-5.063.093-7.313 1.312c0 0 6.281-1.312 11.344 1.781l.843-.374 1.782-3.094s-2.907-1.875-4.782-2.25L21.75 4.78s.656-1.78 1.031-2.436z"/><path fill="#8e4028" d="M27.938 7.688 22.5 7.594l2.719 1.312-5.157.188s2.625.375 3.657 2.062l.843.281 1.97-.468zm-22.97-.844S6.657 8.156 8.157 8.25l6.938.563L12 10.219s-4.781-.656-5.719-1.406c-.937-.75-1.312-1.97-1.312-1.97m4.5-4.969s-.75 2.906-.093 4.688c0 0-1.406-1.782-1.219-3.75 0 0 .188-.844 1.313-.938"/><path fill="#8e4028" d="M14.156.656s-3.094 1.031-4.125 2.625-.844 2.625-.844 2.625.656-1.875 1.781-2.531S14.156.656 14.156.656m5.906 2.063c.094 0-3.469-.094-5.719 1.594-2.25 1.687-3.656 2.343-3.656 2.343L15 5.063s3.28-2.25 5.062-2.344m3.844 17.344s1.875-1.313 2.812-1.125c.938.187 1.875 4.687-1.687 5.062s-1.125-3.937-1.125-3.937"/><path fill="#8e4028" d="M23.813 20.438s2.25-2.532 3.468-2.344c1.125.281 1.97 6.187-2.25 6.562-4.312.375-1.218-4.218-1.218-4.218"/><path fill="#8e4028" d="M24.188 19.78s1.5-.937 2.343-.75c.844.188 1.407 4.22-1.593 4.313-2.907.281-.75-3.562-.75-3.562"/><path fill="#8e4028" d="M23.812 20.156s1.5-.938 2.344-.75 1.406 4.218-1.594 4.312c-2.906.188-.75-3.562-.75-3.562M12.75 27.562c-1.313 1.406-4.594.562-4.406-.75zm3.656-3.093c-.562.187-1.312.375-1.968.375-2.626 0-4.97-.375-7.594-1.032.375.188.656.375 1.031.47.375.562.563 1.218.656 1.687-.281 0-.469.187-.937 0C9.28 27 12 27.28 13.03 26.906c.75-.281 2.25-1.031 3.656-2.156q-.14 0-.28-.281"/><path fill="#8e4028" d="M16.875 24.375c-.094-.094-.187-.094-.187-.187h.093c-.093 0-.187-.094-.187-.094-.657.281-1.407.562-2.063.562-2.625 0-4.969-.375-7.594-1.312v.468c.375.282.75.375 1.125.47.282.843.376 1.312.376 1.968-.282 0-.47-.094-.938-.187 1.688 1.312 5.906 1.875 6.938 1.406.843-.375 1.218-1.5 2.437-3.094"/><path fill="#8e4028" d="M8.344 24.563c.187.468.375.937.469 1.5v.093c.187.094.374.188.562.188.656.187 1.406.375 2.063.468.374 0 1.03.094 1.406 0 .562-.187 1.312-.562 1.875-.937.375-.281.75-.469 1.125-.75l-1.5.188c-1.969-.094-3.938-.375-6-.75"/><path fill="#8e4028" d="M8.344 24.563c.094.28.187.562.375.75.187.093.469.187.656.28-.281.095-.375.188-.469.47.938.375 3.844.937 4.875.562a4.6 4.6 0 0 0 1.031-.375c-.187-.094-1.124-.187-1.312-.281.563 0 1.219-.188 1.5-.375.094-.094.375-.282.469-.469-.281.094-.563.094-.844.094-2.25 0-4.219-.282-6.281-.657"/><path fill="#8e4028" d="M8.531 24.938c.094.093.094.28.188.375.187.093.469.187.656.28-.281.095-.375.188-.469.47.938.375 2.813.843 3.938.656.281-.281.469-.75.562-1.219-1.687 0-3.187-.187-4.875-.562m10.5-3.282c-1.125-.093-2.156.188-3 .563-1.125 0-1.593-.094-2.437-.281-1.781-1.313-1.031-3.188 0-4.5.469-.563 1.219-.844 1.875-.75 1.969.375 3.281.937 3.844 1.218.375.938.75 3.47-.282 3.75"/><path fill="#8e4028" d="M19.031 21.655c-1.03 0-1.875.188-2.718.563-1.125-.094-1.688-.188-2.344-.563-.844-1.031-.656-2.812.375-3.75 1.125-.187 4.406.375 5.156 1.219.375.844.188 1.969-.469 2.531"/><path fill="#8e4028" d="M13.5 19.405c.094-.562.938-1.687 1.313-2.062 1.124-.188 3.468-.094 4.124.656.188.281.75 1.875.75 2.25-1.218 1.031-5.625 1.125-6.093-.562-.094-.094-.094-.188-.094-.282"/><path fill="#8e4028" d="M18.938 18.844c.375.375.562 1.031.562 1.5 0 .468-.28.937-.656 1.312-.75 0-1.406.094-2.062.375-.844-.375-1.22-1.218-1.125-1.875 0-.75.656-1.687 1.687-1.781.563.094 1.219.281 1.594.469"/><path fill="#8e4028" d="M17.625 19.124c.656 0 1.031.563 1.031 1.219s-.562 1.125-1.125 1.125c-.656 0-1.031-.562-1.031-1.219 0-.656.562-1.218 1.125-1.125m-9.469-3.656c.562 1.406.281 3.281-.469 4.969-1.031.562-3 .093-3.937-.75-.375-1.594-.188-3.844.937-4.969 1.125-1.031 2.906-.656 3.469.75"/><path fill="#8e4028" d="M8.25 16.03c.468 1.22.28 3.47-.375 4.876-1.032.093-3.094-.375-3.75-1.125-.375-1.407 0-3.375 1.03-4.407.938-.937 2.532-.656 3.095.657"/><path fill="#8e4028" d="M8.25 16.407c.281.656.281 1.03.188 1.875-1.126 1.406-4.22 1.218-4.22-1.407.188-.656.47-1.218.938-1.593.938-.844 2.532-.188 3.094 1.125"/><path fill="#8e4028" d="M7.125 16.125c1.125.093 1.688 1.312 1.594 2.25s-.75 2.156-1.875 2.062-1.687-1.312-1.594-2.25c.094-1.031.75-2.156 1.875-2.062"/><path fill="#8e4028" d="M7.125 16.969c.563 0 .938.656.938 1.312 0 .657-.563 1.219-1.126 1.219S6 18.844 6 18.188c0-.75.563-1.22 1.125-1.22"/><path fill="#8e4028" d="M7.313 15.844c.562 0 1.031.469.937.937 0 .469-.468.844-1.031.844s-1.031-.469-.937-.937c0-.47.562-.844 1.03-.844m11.062 2.25c.563 0 1.032.468.938.937 0 .469-.469.844-1.031.844-.563 0-1.032-.469-.938-.937 0-.47.469-.844 1.031-.844"/><path fill="#8e4028" d="M11.532 16.687s-.563 3.093-.281 4.5c0 0 5.156 1.874 9.468.562l1.032-2.906c-.094 0-5.438-2.344-10.22-2.157m8.437 5.156c-3.562 1.031-8.062-.657-8.062-.657-.188-1.125.281-4.218.281-4.218C16.218 16.873 21 19.498 21 19.498z"/><path fill="#8e4028" d="M11.531 16.313s-.656 3.468-.375 4.875c0 0 5.25 1.968 9.563.656l1.312-3.281s-5.718-2.438-10.5-2.25m8.438 5.25c-3.563 1.03-8.063-.657-8.063-.657-.187-1.218.281-3.937.281-3.937 4.032-.094 8.907 1.969 8.907 1.969zm-6.469-6.75-.562-.375s2.156-2.625 4.593-1.22c2.438 1.407 2.532 2.813 2.532 2.813s-3.094-3.843-6.563-1.218m-11.531 1.5 1.687-.375v-.375s-1.031-.188-1.687 0z"/><path fill="#b79576" d="m4.781 15.188-2.625-.094.281 3.844 1.782.75s-.282-3.563.562-4.5"/><path fill="#fcc097" d="M10.5 18.938s.563 2.53.188 5.062l-.376 2.344s3.563-.563 4.782-1.969 2.719-6.281 2.719-6.281L16.406 16.5z"/><path fill="#e8bd89" d="M26.25 16.781c-.75 6.375-6.375 10.406-12.75 9.656s-9.75-6.562-8.53-12.843C6 8.344 11.156 3.562 17.532 4.312s9.375 6.094 8.718 12.47"/><path fill="#e8bd89" d="M26.156 15.937c-.657 6.093-7.22 12.75-13.125 12.093-5.907-.656-9-8.437-8.25-14.531.656-6 4.5-9.75 11.906-8.906 5.906.656 10.219 5.25 9.469 11.344"/><path fill="#ffd097" d="M20.22 16.82c.508-4.424-2.583-8.412-6.904-8.908-4.32-.497-8.236 2.687-8.744 7.111s2.583 8.413 6.904 8.909 8.236-2.688 8.744-7.112"/><path fill="#63310f" d="M22.875 15s.563 3.375-.562 4.688 3.281 1.968 3.281 1.968 1.781-3.562 1.406-5.625C26.625 13.97 22.875 15 22.875 15"/><path fill="#d8b18b" d="M18.656 23.531c1.5.094-1.593 4.594-3.375 5.063-1.781.468-4.687.375-5.906-.188s-3.844-5.156-4.312-6.562L4.5 20.062s.281 0 1.125.47c1.5.843 4.688 2.53 13.031 3"/><path fill="#343f3d" d="M12.844 19.688s2.53-.844 4.03 0c0 0 .75.75.282 1.03-.375.282-.937.657-1.219.282-.375-.469-2.062-1.312-3.093-1.312M7.03 17.813s-.56-1.688-1.78-1.783c0 0-.844.282-.844.563 0 .375-.094.843.375.75.469-.094 1.781 0 2.25.468"/><path fill="#e5895b" d="M5.344 10.688S6.28 9 9.375 10.406L7.969 7.125s-1.782 1.219-2.532 3.469"/><path fill="#b79576" d="m18.094 23.625 3.656-1.5.656 1.781s-1.968 2.813-5.906 4.032z"/><path fill="#343f3d" d="m9.75 17.438 2.063.468.374-1.5-2.343-.468z"/><path fill="#63310f" d="M13.125 14.626s1.688-1.219 3.75-.563c2.063.563 3.656 2.438 2.625 2.813-.937.375-1.5-.469-1.875-1.125-.469-.75-1.969-1.313-3.562-.094.093-.094-.844-.375-.938-1.031m-9.281-1.781s1.875-1.032 3.937-.375c2.063.656 3.375 2.156 2.438 2.437-.938.281-1.594-.187-1.969-.937-.469-.75-2.437-2.063-3.937-.844-.094 0-.375.375-.47-.281M21.188 8.25C16.5 6.563 9.28 4.97 5.624 9.188c1.688.938 5.625 2.25 5.625 2.25l1.219-.468c4.125-1.97 8.531-.75 11.25.375-.469-1.5-1.313-2.625-2.532-3.094"/><path fill="url(#d)" d="m25.782 7.406-1.125 3.938S18.563 7.5 13.032 10.03L12 10.406S6.469 9.375 6.094 8.344c0 0-1.125-1.594-.469-3.563 0 0 .563 1.125.844 2.063 0 0 .094-3.469 2.625-4.594 0 0-.375.375-.187 1.875 0 0 3.469-3.375 6.562-3.281 0 0-1.312 1.406-1.312 3.093 0 0 4.593-1.5 8.343-.937 0 0-.468 1.031-1.312 1.969-.094.093 2.344 1.031 4.594 2.437"/><path fill="#63310f" d="m21.656 10.5-1.968 1.969s2.156 3.469 1.687 7.031l5.438-2.531-.844-6.188c0-.094-2.25-.281-4.313-.281"/><path fill="#343f3d" d="M20.531 18.188c.094 0 2.719-.375 2.719-.375l.094.656-2.719 1.593.281-1.5z"/><path fill="url(#e)" d="m25.594 11.813-5.063.656s.375-.375.657 1.125l3.28.281c.188 0 1.407-.375 1.407-.375z"/><path fill="#b85a1b" d="M21.938 3.094s-2.157 1.5-4.688 1.969l4.313 1.406s-3.094.656-4.313.656c-1.219.094-2.625.375-2.625.375l6.188.938s-4.782.093-6.938 1.218c0 0 5.906-1.219 10.688 1.688l.75-.281 1.406-3.094S24.28 6.28 22.5 5.906l-1.219-.562L22.22 3z"/><path fill="#63310f" d="m27.188 8.063-5.063-.094 2.531 1.218-4.968.282s2.437.281 3.468 1.969l.844.28 1.781-.468z"/><path fill="#b85a1b" d="M5.531 7.313s1.594 1.218 3 1.312L15 9.188 12.188 10.5s-4.5-.656-5.344-1.312C6 8.53 5.53 7.312 5.53 7.312m3.375-4.875s-.75 2.718-.094 4.5c0 0-1.312-1.688-1.218-3.563.093-.094.281-.937 1.312-.937"/><path fill="#ffba7b" d="M14.25 1.5s-2.907 1.031-3.938 2.531-.844 2.438-.844 2.438.563-1.782 1.688-2.344S14.25 1.5 14.25 1.5m5.53 1.969c.095 0-3.28-.094-5.343 1.5-2.062 1.593-3.469 2.25-3.469 2.25L15 5.625s3.093-2.062 4.78-2.156"/><path fill="#63310f" d="M23.344 19.781s1.782-1.218 2.625-1.03c.938.187 1.782 4.405-1.593 4.78-3.282.282-1.032-3.75-1.032-3.75"/><path fill="#e8bd89" d="M23.25 20.155s2.156-2.437 3.28-2.156c1.032.188 1.782 5.906-2.155 6.188-4.032.187-1.125-4.032-1.125-4.032"/><path fill="#c18053" d="M23.72 19.5s1.5-.844 2.25-.75c.75.187 1.312 3.937-1.5 4.125-2.813.187-.75-3.375-.75-3.375"/><path fill="#ce9d67" d="M23.344 19.78s1.5-.843 2.25-.75c.75.188 1.313 3.938-1.5 4.126-2.812.187-.75-3.375-.75-3.375"/><path fill="#ffbc8f" d="M12.844 26.813c-1.312 1.406-4.312.562-4.125-.75z"/><path fill="#9a4c18" d="M16.313 24c-.563.188-1.313.281-1.875.375-2.438 0-4.688-.281-7.126-1.031.375.187.657.375.938.468.375.563.563 1.125.563 1.594-.188 0-.47.188-.844 0 1.593.938 4.125 1.219 5.156.844.75-.187 2.063-1.031 3.469-2.062-.094 0-.188-.094-.282-.188"/><path fill="#63310f" d="M16.781 23.813c-.093 0-.093-.094-.187-.188h.093c-.093 0-.187-.094-.187-.094-.562.282-1.406.469-1.969.563-2.437 0-4.687-.375-7.125-1.219v.375c.375.281.75.375 1.125.469.281.656.375 1.218.375 1.781-.187 0-.469-.094-.844-.187 1.594 1.218 5.532 1.687 6.563 1.312.656-.281 1.031-1.312 2.156-2.812"/><path fill="#792936" d="M8.719 24c.187.469.375.938.375 1.406v.094c.187.094.375.188.562.188l1.969.468c.375 0 .938.094 1.406 0 .563-.187 1.219-.562 1.688-.843.375-.188.75-.47 1.125-.75-.469.093-1.031.187-1.406.187z"/><path fill="url(#f)" d="m8.719 24 .281.75c.188.094.469.188.563.281-.282.094-.376.188-.47.469.938.375 3.657.844 4.595.563.28-.094.656-.188.937-.375-.187-.094-1.031-.188-1.312-.282.562 0 1.124-.187 1.406-.375.094-.093.375-.281.375-.468-.281.093-.563.093-.844.093-1.781-.093-3.656-.281-5.531-.656"/><path fill="url(#g)" d="M8.813 24.375c.093.094.093.281.187.375.188.094.469.188.563.281-.282.094-.376.188-.47.469.845.375 2.72.844 3.657.656.281-.281.469-.656.469-1.125z"/><path fill="#343f3d" d="M18.75 21.28c-1.031-.093-2.063.188-2.813.47-1.03 0-1.5-.094-2.25-.282-1.687-1.218-.937-3 0-4.218.47-.563 1.125-.75 1.782-.657 1.875.282 3.093.844 3.562 1.22.375.843.75 3.187-.281 3.468"/><path fill="url(#h)" d="M18.75 21.28q-1.405 0-2.53.563c-1.032-.094-1.594-.187-2.25-.469-.844-.937-.563-2.625.375-3.468 1.03-.188 3.937.375 4.593 1.03.375.75.282 1.782-.375 2.345z"/><path fill="#fff" d="M13.594 19.218c.094-.469.844-1.594 1.219-1.969 1.03-.187 3.28-.093 3.937.563.188.281.469 1.781.469 2.156C18 21 14.156 21 13.687 19.312c-.093 0-.093-.094-.093-.094"/><path fill="#343f3d" d="M18.656 18.656c.375.375.563.938.563 1.407 0 .468-.282.937-.563 1.218a6.6 6.6 0 0 0-1.968.282c-.75-.282-1.125-1.125-1.125-1.782 0-.75.656-1.593 1.593-1.687z"/><path fill="#343f3d" d="M17.437 18.844c.562 0 1.031.563.937 1.125 0 .563-.562 1.031-1.125 1.031s-1.03-.562-.937-1.125c.094-.562.562-1.03 1.125-1.03M8.53 15.47c.468 1.313.28 3.094-.47 4.688-.937.562-3.093.28-3.937-.563-.375-1.5.094-3.75 1.125-4.781 1.125-1.031 2.813-.75 3.282.656"/><path fill="url(#i)" d="M8.53 15.937c.47 1.219.282 3.187-.374 4.594-.938.093-2.906-.375-3.563-1.032-.375-1.312 0-3.187 1.032-4.125.937-.937 2.437-.656 2.906.563"/><path fill="#fff" d="M8.625 16.312c.188.562.281.937.188 1.781-1.032 1.219-4.032 1.125-4.032-1.312.188-.563.469-1.125.844-1.5.938-.844 2.531-.188 3 1.03"/><path fill="#343f3d" d="M7.594 16.03c1.031.095 1.594 1.22 1.5 2.157s-.75 1.969-1.781 1.969c-1.031-.094-1.594-1.219-1.5-2.156 0-.938.656-2.063 1.781-1.97"/><path fill="#343f3d" d="M7.5 16.876c.563 0 .938.562.844 1.218 0 .656-.468 1.219-1.03 1.125-.563 0-.938-.562-.845-1.219.094-.656.563-1.218 1.032-1.125"/><path fill="#fffffc" d="M7.781 15.75a.94.94 0 0 1 .938.938c0 .468-.469.843-1.031.843a.94.94 0 0 1-.938-.937 1.02 1.02 0 0 1 1.031-.844m10.407 2.156a.94.94 0 0 1 .937.938c0 .468-.469.843-1.031.843a.94.94 0 0 1-.938-.937c.094-.562.469-.844 1.032-.844"/><path fill="#fff" d="M11.719 16.593s-.469 2.907-.281 4.219c0 0 4.874 1.781 8.906.469l.937-2.719c0 .094-5.062-2.156-9.562-1.969m7.875 4.875c-3.375.938-7.594-.656-7.594-.656-.187-1.125.188-4.031.188-4.031 3.843-.094 8.25 2.437 8.25 2.437zM1.969 15.562s.187 2.25.468 3.375c0 0 3.376 2.25 7.22 1.219l.374-3.75s-5.437-1.688-8.062-.844m7.219 4.781c-3.094.844-6.376-1.125-6.376-1.125-.28-1.031-.562-3.844-.562-3.844 2.25-.562 7.219 1.97 7.219 1.97z"/><path fill="#343f3d" d="M11.719 16.313s-.563 3.281-.375 4.594c0 0 4.969 1.875 9 .656l1.218-3.094c0-.094-5.343-2.437-9.843-2.156m7.969 4.875c-3.375.937-7.594-.656-7.594-.656-.188-1.125.281-3.75.281-3.75 3.844-.094 8.344 1.875 8.344 1.875zm-17.813-6s.188 2.812.563 3.937c0 0 3.375 2.438 7.312 1.407l.375-4.407c-.094-.093-5.625-1.875-8.25-.937m7.313 4.687c-3.094.844-6.376-1.031-6.376-1.031-.28-1.031-.468-3.281-.468-3.281 2.344-.563 7.219.937 7.219.937z"/><path fill="url(#j)" d="m13.594 14.812-.469-.375s2.063-2.531 4.313-1.125 2.343 2.625 2.343 2.625-2.906-3.562-6.187-1.125"/><path fill="url(#k)" d="m4.313 13.218-.47-.375s2.063-2.531 4.313-1.125 2.344 2.625 2.344 2.625-2.906-3.562-6.187-1.125"/><path fill="#e8bd89" d="m2.719 16.218 1.594-.375v-.375s-1.032-.187-1.594 0z"/><path fill="#8e4028" d="M21.937 21.563s.187 2.062 1.5 2.53l.093.188-.937.282s-1.125-.75-.657-3"/></g></g></g><defs><linearGradient id="d" x1="5.358" x2="25.746" y1="6.163" y2="6.163" gradientUnits="userSpaceOnUse"><stop stop-color="#f38c05"/><stop offset="1" stop-color="#b85a1b"/></linearGradient><linearGradient id="e" x1="20.573" x2="25.98" y1="12.812" y2="12.812" gradientUnits="userSpaceOnUse"><stop stop-color="#f38c05"/><stop offset="1" stop-color="#b85a1b"/></linearGradient><linearGradient id="f" x1="13.753" x2="14.395" y1="25.134" y2="25.055" gradientUnits="userSpaceOnUse"><stop stop-color="#bdd6de"/><stop offset="1" stop-color="#fff"/></linearGradient><linearGradient id="g" x1="12.178" x2="13.245" y1="25.417" y2="25.967" gradientUnits="userSpaceOnUse"><stop stop-color="#fff"/><stop offset="1" stop-color="#bdd6de"/></linearGradient><linearGradient id="h" x1="16.333" x2="16.232" y1="20.233" y2="21.351" gradientUnits="userSpaceOnUse"><stop stop-color="#bdd6de"/><stop offset="1" stop-color="#fff"/></linearGradient><linearGradient id="i" x1="6.624" x2="6.425" y1="18.843" y2="19.87" gradientUnits="userSpaceOnUse"><stop stop-color="#bdd6de"/><stop offset="1" stop-color="#fff"/></linearGradient><linearGradient id="j" x1="13.101" x2="19.755" y1="14.483" y2="14.483" gradientUnits="userSpaceOnUse"><stop stop-color="#f38c05"/><stop offset="1" stop-color="#b85a1b"/></linearGradient><linearGradient id="k" x1="3.81" x2="10.464" y1="12.893" y2="12.893" gradientUnits="userSpaceOnUse"><stop stop-color="#f38c05"/><stop offset="1" stop-color="#b85a1b"/></linearGradient><clipPath id="a"><path fill="#fff" d="M0 0h30v30H0z"/></clipPath><clipPath id="b"><path fill="#fff" d="M0 0h30v30H0z"/></clipPath><clipPath id="c"><path fill="#fff" d="M0 0h30v30H0z"/></clipPath></defs></svg>