<svg xmlns="http://www.w3.org/2000/svg" width="30" height="30" fill="none" viewBox="0 0 30 30"><g clip-path="url(#a)"><g clip-path="url(#b)"><g clip-path="url(#c)"><path fill="#29383a" d="M24.843 1.125 5.906 3.655c-1.407.188-2.438 1.22-2.625 2.532l-.188.938L.281 26.718C.187 27.562 2.156 30 3.187 30l23.062-.75c.75 0 1.22-.47 1.313-1.125l1.875-21.188-.844-.656-1.031.469c.094-1.032-1.688-5.813-2.719-5.625"/><path fill="#29383a" d="m24 26.625-22.313.844c-.844 0-1.688-.75-1.5-1.594L3.093 6.469l23.906-3.375L25.218 25.5c0 .656-.563 1.125-1.219 1.125"/><path fill="#29383a" d="M27 3.844 3 7.125l.094-.844a2.78 2.78 0 0 1 2.344-2.343l19.968-3c.938-.094 1.782.656 1.688 1.593z"/><path fill="#29383a" d="M25.219 2.625c-.094.469-.563.938-1.032.938a.64.64 0 0 1-.656-.657c0-.375.282-.75.75-.937.563-.188 1.032.093.938.656m-3 .375c-.094.469-.563.938-1.032.938a.64.64 0 0 1-.656-.657c0-.375.282-.75.75-.937s.938.094.938.656m-3.094.469c-.094.469-.562.937-1.031.937a.64.64 0 0 1-.657-.656c0-.375.282-.75.75-.937.563-.188 1.032.093.938.656m5.906 22.312 2.532 2.25 1.875-21.843c0-.47-.094-.938-.375-1.313l-2.344-3.281v1.5c0 .656-1.688 22.687-1.688 22.687"/><path fill="#29383a" d="m12.563 22.313-7.782 4.03 3.282-8.905-5.532-4.22 7.688-.937 3.844-7.312 3.468 6.469 8.719.28-7.031 6 .75 7.876z"/><path fill="#29383a" d="m12.188 20.813-7.313 3.75 2.25-7.125-4.594-4.313 7.406-1.781 4.126-6.469 2.718 5.813 8.157.187-6.563 5.719.656 7.312z"/><path fill="#29383a" d="M7.969 16.594 4.03 13.406l6.282-1.312 3.75-5.906 1.968 4.875-3.75 8.437-6.094 3.75zM12.281 19.5 18 22.219l-.75-6.094 5.719-4.594-6.938-.469zm-.187 3.563L21 25.875l-2.156-2.062-6.657-3-7.124 3.562-.282 1.969zm9.187 2.906-.656-9.188 5.625-5.062-1.406-.844-6.469 5.719.656 7.312z"/><path fill="#29383a" d="M12.094 21.281v1.782l9.187 2.906-2.437-2.344-6.657-2.812z"/><path fill="url(#d)" d="M24 2.156 6.562 4.593c-1.313.188-2.25 1.125-2.438 2.344l-.093.938-2.625 18c-.094.843 1.781 3.093 2.625 3l21.375-.75a1.22 1.22 0 0 0 1.219-1.032L28.405 7.5l-.75-.657-.937.469c0-.844-1.687-5.25-2.718-5.156"/><path fill="#fff" d="m22.593 25.875-19.875.656c-.844 0-1.5-.656-1.406-1.406l2.718-18 22.125-3.094-2.437 20.813c-.094.562-.563 1.031-1.125 1.031"/><path fill="#9abab9" d="m26.063 4.78-22.125 3 .093-.843c.188-1.125 1.032-1.97 2.25-2.157l18.375-2.718c.844-.094 1.688.562 1.594 1.406z"/><path fill="#fff" d="M24.469 3.563c-.094.468-.469.843-.938.843-.375 0-.562-.28-.562-.562A.9.9 0 0 1 23.625 3c.469-.187.844.094.844.563M21.656 3.938c-.093.468-.468.843-.937.843-.375 0-.563-.28-.563-.562a.9.9 0 0 1 .657-.844c.468-.187.843.094.843.563M18.844 4.313c-.094.468-.469.843-.938.843-.375 0-.562-.28-.562-.562A.9.9 0 0 1 18 3.75c.469-.187.844.094.844.563"/><path fill="#496867" d="m23.625 25.313 3 1.78 1.781-20.155c0-.47-.093-.844-.375-1.22l-2.062-3s-.094.75-.094 1.313-2.25 21.282-2.25 21.282"/><path fill="#8e4a17" d="M12.75 21.75 5.531 25.5l3.094-8.25-5.156-3.844 7.125-.937 3.469-6.75 3.28 6.094 6.563 1.03-4.968 4.782.656 7.219z"/><path fill="#b76b2c" d="m12.375 20.344-6.75 3.562 2.063-6.656-4.22-3.937 6.845-1.594 3.75-6 2.624 5.344 7.5.187-6.093 5.25.656 6.75z"/><path fill="#ffdf99" d="m8.531 16.5-3.656-3 5.813-1.125 3.374-5.531 1.876 4.5-3.47 7.875-5.624 3.375z"/><path fill="#ff9c44" d="m12.469 19.219 5.344 2.437-.75-5.625 5.343-4.125-6.468-.562z"/><path fill="#8e4a17" d="m12.281 22.406 8.25 2.719-1.968-1.969-6.188-2.812-6.562 3.375L5.53 25.5zm8.438 2.719-.469-8.437L24 13.03l.094-1.875-6 5.344.656 6.75z"/><path fill="#663210" d="M12.281 20.813v1.593l8.438 2.719-2.157-2.062-6.187-2.72z"/></g></g></g><defs><clipPath id="a"><path fill="#fff" d="M0 0h30v30H0z"/></clipPath><clipPath id="b"><path fill="#fff" d="M0 0h30v30H0z"/></clipPath><clipPath id="c"><path fill="#fff" d="M0 0h30v30H0z"/></clipPath><linearGradient id="d" x1="30.551" x2="-15.68" y1="19.032" y2="9.273" gradientUnits="userSpaceOnUse"><stop stop-color="#578281"/><stop offset="1" stop-color="#dbefef"/></linearGradient></defs></svg>