<svg xmlns="http://www.w3.org/2000/svg" width="31" height="31" fill="none" viewBox="0 0 31 31"><g clip-path="url(#a)"><g clip-path="url(#b)"><g clip-path="url(#c)"><path fill="#a2b2bc" d="m16.663 17.535-8.331 8.138L17.051 31l8.331-10.463z"/><path fill="#e8e8e8" d="m17.05 18.309-7.654 7.459 7.46 4.553 7.46-9.3z"/><path fill="#a2b2bc" d="m17.146 28.966-6.2-3.778-.387.387 6.297 3.779zm1.26-1.26-6.2-3.68-.485.387 6.297 3.778z"/><path fill="#9a4c18" d="m14.24 3.003.097-2.035-.775-.775 2.713.582 3.003 3.875-5.135.484zM4.843 9.3s-.678 2.325.872 5.134l.775-3.003-1.453-2.422zm1.55-4.263S5.91 3.875 4.553 3.1c0 0 1.743-.582 3.875-.291l.29.775-.484 1.937z"/><path fill="#9a4c18" d="M18.46 20.751c4.6-2.162 6.614-7.565 4.497-12.068s-7.562-6.4-12.161-4.239c-4.6 2.163-6.613 7.566-4.497 12.069s7.562 6.4 12.162 4.238"/><path fill="#e5895b" d="M17.79 20.302c4.26-2.003 6.036-7.198 3.965-11.604-2.072-4.406-7.205-6.355-11.466-4.352s-6.036 7.199-3.965 11.605c2.072 4.406 7.205 6.354 11.466 4.351"/><path fill="#fad395" d="M17.074 19.543c3.97-1.867 5.62-6.716 3.686-10.832s-6.722-5.939-10.692-4.073c-3.97 1.867-5.62 6.716-3.686 10.832 1.934 4.115 6.721 5.939 10.692 4.073"/><path fill="#9a4c18" d="M17.05 7.555s2.034-.678 2.615-1.162c.582-.485 1.357-.872 1.163-1.453s-2.519-3.585-6.878-3.1l3.293 2.034zM5.715 10.56S4.553 9.687 4.65 8.137 3.1 4.94 3.1 4.94l3.971-.388s2.325-.097 2.52.969c.096 1.162-.098 3.003-.195 3.197 0 .194-.387 1.356-.387 1.356z"/><path fill="#db7d1f" d="M6.2 10.657s-.97-1.55-.485-2.228c.388-.678-1.162-2.713-1.162-2.713l3.972-.387s2.325-.097 2.518.969c.194 1.065-.096 3.003-.096 3.1 0 .193-.388.871-.388.871zm9.59-2.906s2.035-.678 2.616-1.163c.484-.581 1.356-.872 1.162-1.453-.193-.581-2.518-3.584-6.975-3.1l3.294 2.131z"/><path fill="#9a4c18" d="M8.428 9.978s-1.066.097-1.163-1.841.872-5.134.872-5.134L4.553 1.259S8.04-.68 12.109.969c0 0 4.166.677 4.747 1.937s2.81 3.1 1.84 4.262c-.968 1.163-9.687 3.1-10.268 2.81"/><path fill="#f49937" d="M9.009 9.979s-.775-1.26-.872-2.713.775-4.165.775-4.165L6.975 1.26s1.84-.873 4.94.484c0 0 3.197.484 3.585 1.453.387.968 1.259 4.068.484 4.94S9.396 10.27 9.009 9.98"/><path fill="#fde049" d="m10.56 8.72-.097-3.585-1.453-3.39 3.39 2.809.775 3.875s-1.743.775-2.615.29"/><path fill="#9a4c18" d="m18.31 3.293.484 2.422-2.034-.388 1.356 1.453 2.422-1.356z"/><path fill="#db7d1f" d="M15.596 6.393h1.744l1.26-1.647.29 1.453-.775.775-2.616 1.55zm-8.525.969.775 1.647 1.84 1.065H9.3l-2.034.194-1.066-1.26z"/><path fill="#db7d1f" d="m14.24 9.203.388-3.585-1.647-2.906-1.356-1.066s2.325.388 2.81.679c.484.29 1.55 1.162 1.55 1.55 0 .387.484 3.778.484 3.778l-.485.581c.097.097-1.065.969-1.743.969"/><path fill="#9a4c18" d="m7.652 7.459.485-.291s.097 1.647.872 2.519c0 0-1.454.097-1.841-2.035z"/><path fill="#db7d1f" d="M16.856 6.78s1.55-1.355.774-2.712c0 0 .872.872.872 1.647s-1.259 1.066-1.259 1.066z"/><path fill="#f49937" d="m9.398 10.559 1.55.58 4.068-2.905-.484-1.55-1.066 2.325-3.293.775-1.357-.194z"/><path fill="#db7d1f" d="m15.79 8.332 1.066.581-.388 1.453s2.035-.871 2.616-.096c.581.774.678 2.034.678 2.034l3.197-1.84s-1.647-3.682-3.39-4.748l-1.55-.29-.97 1.453zm-8.816 2.034-1.356 3.585s-.678-1.55-.387-3.875z"/><path fill="#9a4c18" d="m23.153 11.431-3.294.872-.29-.387 3.293-2.229z"/><path fill="#9a4c18" d="m20.441 11.528-1.162-1.84s-1.55 0-2.52.387l-.484.29 1.647.098 1.938 1.84z"/><path fill="#9a4c18" d="m17.341 10.075.097-1.357-2.034-.775-1.55 1.647 2.228-.969.193 1.647z"/><path fill="#9a4c18" d="m15.404 8.525-4.36 3.197-1.937-1.357 1.938.388 4.262-2.81z"/><path fill="#9a4c18" d="m11.044 11.527-2.519.581 1.938-1.162zm-1.065-.775-2.616.581-1.744 2.713.872-3.488 2.713-.29.58.484"/><path fill="#9a4c18" d="m15.404 8.04 3.584-1.55 1.453 1.453-1.162 2.422H18.6zm-8.816 3.682H9.59l1.066-.775-.678-.388-2.325.388z"/><path fill="#fad395" d="m15.598 8.912 3.1-1.937 1.065 1.065-2.034 2.81H15.79z"/><path fill="#fff" stroke="#9a4c18" stroke-miterlimit="10" stroke-width=".336" d="M13.563 19.472s4.65-1.356 6.296-3.972c0 0 .388 1.55-.193 2.712-.097 0-2.81 1.357-6.103 1.26Z"/><path fill="#4a4a4a" d="M19.762 10.27s-4.36.484-7.362 1.743c0 0-.291.388-.775.582-.485 0-1.066-.194-1.066-.194-3.488 0-7.46 1.26-7.46 1.26s-.387 0-.193.677c.29.678.775.582.775.582s.969 2.712 2.131 3.1c1.26.484 4.069.387 5.038.29.968-.097 1.356-.581 1.356-1.26 0-.677-.29-1.743-.388-2.324-.097-.388.097-.485.194-.581h.194c.097 0 .387.096.581.387.388.581.872 1.55 1.453 2.131.581.582 1.163.872 2.131.582.97-.291 3.488-1.26 4.263-2.132.775-.871-.484-3.487-.484-3.487s.58-.097.29-.775c-.194-.775-.678-.581-.678-.581"/><path fill="#6f6f6f" d="M12.885 12.303s4.36-1.55 7.169-1.647l.096.29s-4.843.679-7.265 1.357"/><path fill="#fff" d="M19.181 11.527c-.968.097-3.68.388-6.006 1.55-.194.097-.29.291-.097.582.29.58.872 1.646 1.647 2.518.097.194.29.291.485.388.58-.872 2.228-3.585 4.068-5.038z"/><path fill="#ccc" d="M19.278 11.527c-1.84 1.454-3.585 4.166-4.069 5.038.29.097.581.194.775.097 1.066-.29 3.294-.872 4.166-2.035 0-.097.097-.097.097-.193 0-.291.096-1.163-.582-2.616 0-.097-.194-.29-.387-.29"/><path fill="#fff" d="M4.456 14.531c-.193.097-.29.29-.193.485.678 1.453 1.259 2.13 1.55 2.325.096.096.096.096.193.096l.775.291c.678-1.065 2.035-2.906 3.585-4.166-2.713 0-5.038.679-5.91.97"/><path fill="#ccc" d="M10.656 13.66h-.29c-1.453 1.26-2.81 3.1-3.585 4.166 1.453.29 3.197.097 4.166 0 .484-.097.678-.485.678-.872 0-1.066-.29-2.228-.484-2.81 0-.29-.291-.484-.485-.484"/><path fill="#9a4c18" d="M17.824 21.118c0 .29 1.163.194 1.938.097.387-.097.775-.291.968-.678l1.647-2.616c.097-.194.194-.485.097-.678-.194-.485-.872-.678-1.453-.775a1.44 1.44 0 0 0-1.453.678c-.872 1.55-1.744 3.584-1.744 3.972"/><path fill="#e5895b" d="M18.213 20.634c0 .29.969.194 1.647.097q.58-.145.872-.581l1.356-2.132c.097-.193.097-.387.097-.58-.194-.388-.775-.582-1.26-.679-.484-.097-1.065.194-1.259.581-.775 1.357-1.453 3.003-1.453 3.294"/><path fill="#fad395" d="M18.793 19.763c0 .193.775.097 1.356.097.29 0 .581-.194.678-.388l.97-1.26c.096-.193.096-.29 0-.484-.195-.29-.679-.484-1.067-.484-.387-.097-.871.097-1.065.387z"/><path fill="#7d4545" d="M28.384 17.727c-.29.388-1.356-.29-2.325-1.065-1.066-.775-1.938-1.841-1.647-2.229.29-.387 1.647 0 2.713.872 1.065.872 1.55 2.035 1.259 2.422"/><path fill="#ad7741" d="m18.794 23.638-1.84-1.356 6.974-7.46 1.453 1.163z"/><path fill="#524666" d="M20.538 24.704 18.89 23.54l5.134-5.812 1.356 1.162z"/><path fill="#ad7741" d="m22.088 26.253-1.647-1.357 6.297-7.75 1.357 1.066z"/><path fill="#7d4545" d="m26.932 19.957-4.553-3.487 1.937-2.035c.194-.29.678-.194.97.097l2.808 2.422c.291.29.388.678.194.969z"/><path fill="#a2b2bc" d="m22.088 26.156-5.135-3.875-.096 3.488-.097 1.647c0 .096.097.193.193.29.097.097.194.097.291.097l1.744-.581z"/><path fill="#ffcb00" d="m19.084 23.541-1.453-1.163 5.134-5.618 1.26 1.065z"/><path fill="#ffefcd" d="m17.825 26.93-.387-.29.193-4.165 4.069 3.293z"/><path fill="#ffb100" d="m20.537 24.606-1.453-1.066 4.94-5.716 1.26 1.066z"/><path fill="#ff9a00" d="m21.797 25.672-1.26-1.066 4.747-5.715 1.26.872z"/><path fill="#dc7d79" d="m26.447 19.859-3.681-3.003 1.55-1.647c.193-.29.678-.194.968 0l2.229 1.84c.29.291.484.485.29.775z"/><path fill="#524666" d="m17.438 25.479 1.453 1.065-1.26.485c-.096 0-.193 0-.29-.097s-.097-.194-.097-.291z"/><path fill="#dc7d79" d="M27.9 17.56c.197-.253-.397-1.043-1.328-1.765-.93-.72-1.843-1.1-2.04-.846s.398 1.044 1.328 1.765 1.844 1.1 2.04.847"/><path fill="#e2e2e2" d="m26.544 19.278.29.194-.29.29-.194-.29zm-3.585-2.81.194.291-.194.291-.193-.29z"/><path fill="#7d4545" d="m23.153 16.178.194.29-.194.291-.194-.29zm3.681 2.81.194.193-.29.29-.195-.193z"/><path fill="#ffefcd" d="M21.786 25.613c.23-.296-.51-1.254-1.652-2.139s-2.253-1.363-2.482-1.067.51 1.254 1.651 2.139 2.254 1.363 2.483 1.067"/><path fill="#e7a3a2" d="m24.218 17.63-.775-.678 1.163-1.356c.097-.194.387-.194.581-.097.29.097.388.485.194.775z"/><path fill="#bf6262" d="m26.156 19.18-.775-.58 1.066-1.454c.193-.193.58-.29.678 0a.62.62 0 0 1 0 .582z"/><path fill="#7d4545" d="M26.997 19.169c.196-.254-.501-1.124-1.558-1.944s-2.074-1.278-2.27-1.024c-.197.253.5 1.124 1.558 1.943 1.057.82 2.073 1.278 2.27 1.025"/><path fill="#e2e2e2" d="M26.803 19.477c.197-.253-.5-1.124-1.558-1.943-1.057-.82-2.073-1.278-2.27-1.025-.196.254.501 1.124 1.558 1.944s2.074 1.278 2.27 1.024"/><path fill="#fff7e9" d="m18.406 25.478.871-2.228s-.58-.387-1.162-.484l-.29 2.518z"/><path fill="#ff9a00" d="m25.672 18.406-.678.872c.775.485 1.453.678 1.55.485.194-.194-.194-.776-.872-1.357"/><path fill="#ffcb00" d="M22.669 16.76c-.194.194.193.775.968 1.453l.775-.872c-.872-.484-1.55-.775-1.743-.581"/><path fill="#ffb100" d="M24.993 17.825c-.194-.194-.387-.29-.581-.387l-.775.871c.194.194.387.291.581.485.29.194.484.387.678.484l.678-.872q-.145-.29-.581-.581"/><path fill="#87785c" d="m18.89 26.059 2.229-.97s.387.195.581.679l-.097.194-2.519.775z" opacity=".18"/><path fill="#9a4c18" d="M21.894 23.153c-.194.194.58.775 1.162 1.163.29.194.678.29 1.066.097l2.131-.678c.194-.097.387-.194.484-.388.194-.484-.096-.969-.484-1.356-.29-.388-.872-.581-1.356-.388-1.55.582-2.81 1.26-3.003 1.55"/><path fill="#e5895b" d="M22.378 23.057c-.194.193.484.678.968 1.065.291.194.582.194.872.097l1.647-.581a.76.76 0 0 0 .388-.388c.097-.387-.097-.872-.388-1.259a.924.924 0 0 0-1.162-.29c-1.26.58-2.132 1.065-2.325 1.356"/><path fill="#fad395" d="M22.766 22.96c-.096.194.388.581.872.872.194.194.485.194.678.097l1.357-.388q.29-.144.29-.29c.097-.29-.097-.678-.387-.969-.194-.29-.582-.387-.969-.29-.969.387-1.744.774-1.84.968"/><path fill="#9a4c18" d="M21.603 20.732c-.29.193.29 1.162.775 1.743.29.388.678.582 1.066.582l2.616.097c.29 0 .484-.097.678-.291.387-.485.29-1.163.097-1.744-.194-.581-.775-.969-1.26-.969-1.84.097-3.584.388-3.972.582"/><path fill="#e5895b" d="M22.282 20.828c-.291.194.29.969.678 1.55.194.29.581.485.968.485l2.035.096c.194 0 .484-.096.581-.29.29-.388.194-.969.097-1.453s-.678-.872-1.162-.872c-1.744 0-2.907.29-3.197.484"/><path fill="#fad395" d="M22.67 20.925c-.194.097.29.775.58 1.26.195.29.485.387.776.387l1.647.194a.74.74 0 0 0 .484-.194c.194-.29.097-.775 0-1.26a.93.93 0 0 0-.872-.677c-1.356 0-2.325.097-2.616.29"/><path fill="#9a4c18" d="M21.41 21.118c-.195.194.58.775 1.162 1.163.29.193.678.29 1.065.097l2.132-.679c.193-.096.387-.193.484-.387.194-.484-.097-.969-.484-1.356-.291-.388-.872-.582-1.357-.388-1.55.485-2.809 1.26-3.003 1.55"/><path fill="#e5895b" d="M21.893 21.022c-.193.193.485.678.97 1.065.29.194.58.194.87.097l1.648-.581a.76.76 0 0 0 .387-.388c.097-.387-.097-.872-.387-1.26a.925.925 0 0 0-1.163-.29c-1.26.582-2.13 1.066-2.325 1.357"/><path fill="#fad395" d="M22.282 20.925c-.097.194.387.581.872.872.194.194.484.194.678.097l1.356-.388q.29-.146.29-.29c.098-.291-.096-.678-.387-.97-.193-.29-.58-.387-.968-.29-.97.388-1.647.775-1.841.969"/></g></g></g><defs><clipPath id="a"><path fill="#fff" d="M0 0h31v31H0z"/></clipPath><clipPath id="b"><path fill="#fff" d="M0 0h31v31H0z"/></clipPath><clipPath id="c"><path fill="#fff" d="M0 0h31v31H0z"/></clipPath></defs></svg>