<svg xmlns="http://www.w3.org/2000/svg" width="30" height="30" fill="none" viewBox="0 0 30 30"><g clip-path="url(#a)"><g clip-path="url(#b)"><path fill="#662d29" d="m29.344 3.938-.563-.563a2.26 2.26 0 0 0-.937-.937C27 1.594 26.062 1.03 25.125 1.03L9.75 2.438c-.187 0-.281 0-.469.093l-1.031.094C6.094 2.719 4.031 4.5 3.563 6.563L.374 20.343c-.094.188-.094.47-.094.657l-.187.844C0 22.125 0 22.406 0 22.687c0 .375 0 .657.094 1.032.375 2.437 2.156 5.343 4.031 5.343l18.188-.187c2.437 0 4.03-1.687 4.593-3.844v.094l.094-.656c0-.094.094-.282.094-.375l1.218-7.782 1.313-8.343.281-.469v-.656c.282-1.219-.281-2.438-.562-2.907"/><path fill="url(#c)" d="M25.406 3.094 9.374 4.406c-2.156.188-4.312 1.969-4.78 4.031l-3.47 12.938c-.468 2.25 1.5 6.656 3.75 6.656l16.875-.187c2.625 0 4.125-2.063 4.5-4.5l2.438-15c.375-2.157-.844-5.438-3.281-5.25"/><path fill="#ff9c44" d="M24.562 2.718 9.468 4.031c-2.063.187-4.031 1.875-4.5 3.843L1.78 21.937c-.468 2.156.844 3.844 3 3.844l15.844-.188c2.438 0 4.688-1.969 5.063-4.219l2.437-15.187c.375-2.063-1.312-3.656-3.562-3.469"/><path fill="#bf661d" d="M24.468 2.063 10.124 3.375c-2.062.094-4.031 1.875-4.5 3.844L2.718 19.688c-.469 2.156.844 3.938 3 3.844l15.094-.188c2.437 0 4.78-1.969 5.156-4.312l2.906-10.969c.281-2.156-2.156-6.188-4.406-6"/><path fill="url(#d)" d="M23.156 3 8.624 4.22C6.562 4.406 4.687 6 4.218 7.875L1.124 21.47c-.468 2.062.844 3.75 2.907 3.75l15.375-.188c2.343 0 4.593-1.875 4.875-4.125l2.343-14.53c.282-2.063-1.218-3.563-3.468-3.376"/><path fill="#ff9c44" d="M23.25 2.25 8.717 3.47c-1.969.187-3.937 1.781-4.312 3.75l-2.907 12.75c-.468 2.063.844 3.75 2.907 3.75l15.28-.281c2.345 0 4.595-1.875 4.876-4.125L26.718 5.53c.375-1.968-1.219-3.468-3.469-3.28"/><path fill="#bf661d" d="m27.375 3.75.938.938c.28.375.75 1.5.562 2.625l-2.719 17.062-1.781-3.656z"/><path fill="#662d29" d="M22.688 13.688 9.563 6.938l-3 15.375z"/><path fill="#fff" d="M22.313 11.906 9.188 5.25l-3 15.375z"/><path fill="#662d29" d="m6.281 20.625 16.032-8.719.375 1.781-16.125 8.626z"/></g></g><defs><linearGradient id="c" x1=".672" x2="19.652" y1="15.582" y2="15.582" gradientUnits="userSpaceOnUse"><stop stop-color="#ffe471"/><stop offset="1" stop-color="#ff9c44"/></linearGradient><linearGradient id="d" x1="20.524" x2="-5.998" y1="14.117" y2="14.117" gradientUnits="userSpaceOnUse"><stop stop-color="#ffe471"/><stop offset="1" stop-color="#fff"/></linearGradient><clipPath id="a"><path fill="#fff" d="M0 0h30v30H0z"/></clipPath><clipPath id="b"><path fill="#fff" d="M0 0h30v30H0z"/></clipPath></defs></svg>