<svg xmlns="http://www.w3.org/2000/svg" width="30" height="30" fill="none" viewBox="0 0 30 30"><g clip-path="url(#a)"><g clip-path="url(#b)"><g clip-path="url(#c)"><path fill="#29383a" d="m18.938 25.5 1.875-.375s1.312 2.813-1.407 4.313c-2.718 1.5-7.218-.094-7.218-.094s4.687.281 6-.844c1.312-1.312.75-3 .75-3"/><path fill="#8e4028" d="m5.249 11.156-1.687-.75s-.563 4.5 1.312 6.75.375-6 .375-6m15.188 10.969 2.53 1.781s-1.124.75-2.155.844c-1.032.094-.563-1.875-.563-1.875z"/><path fill="#8e4028" d="M26.625 16.687c0-.094.094-.094.094-.188.375-.375 1.875-2.156 1.218-4.031-.187-.469-.28-.937-.468-1.312-.094-.376-.188-.75-.375-1.126-.469-1.124-1.032-2.25-2.157-3.374l-.375-.375c.375-1.594-.187-3.75-4.312-5.532C15.844-1.126 7.969.281 6.656 3.656 5.438 7.124 4.688 8.249 4.688 8.249c-.657.375-1.125 1.407-1.313 2.531 0 .47.094.938.094 1.407.094.937.281 1.875.375 2.812v.375c.187.375.375.656.469.844 0 .094.093.094.093.188-.093.375-.187.75-.281 1.218 0 0-.094.469-.187 1.313-.094.375-.094.75-.094 1.125.469 1.218 1.219 2.25 2.156 3.187.469.469.938 1.032 1.5 1.407.469-.844 1.219-1.5 2.063-2.063 2.718-1.969 6.187-1.875 9.187-.656 1.313.562 2.344 1.406 3.563 2.062.093.094.28.188.375.282 2.625-1.22 4.875-5.438 4.312-6.844-.094-.282-.187-.563-.375-.75M4.781 15.093c0-.187 0-.281.094-.469v.188c0 .094-.094.187-.094.281"/><path fill="#29383a" d="M21.47 25.688v-.093c0-.375-.095-.75-.188-1.22 0-.187-.188-.562-.375-.937-.282-.468-.657-.843-.844-1.218 0 0 0-.094-.094-.094l-1.125-.563c-3-1.125-6.375-1.312-9.093.657-1.032.75-2.157 1.593-2.344 2.906-.188 1.406.469 2.719 1.594 3.281.375.188.75.375 1.125.469.187.094.375.094.562.187.094 0 .281.094.375.094.469.188 1.031.281 1.594.375.562 0 1.125.094 1.687.188.657.093 1.219 0 1.781-.188 1.22-.187 2.25-.469 3.375-1.031a8.8 8.8 0 0 0 1.688-1.125c.094-.469.281-1.125.281-1.688"/><path fill="#d6884d" d="M23.438 6.281s6.093 5.438 2.25 10.688l-3.188.468-1.875-3.28z"/><path fill="#d6884d" d="m21.658 9.375.656 1.781s2.719-.562 3.281 1.125c.656 1.688.656 3.656.656 3.656s2.813-4.218-3.187-10.124c.469.28-.094 2.156-1.406 3.562M5.626 14.813s-.843 3-.937 4.968c-.094 1.969 4.687 4.407 4.687 4.407l4.97-4.407z"/><path fill="#d6884d" d="M5.063 17.25s.282 1.97 1.313 2.438c1.031.563 2.531.938 2.531.938l.469.281s-1.125.469-1.688 2.25c0 0-2.53-1.406-2.718-3.469s.093-2.437.093-2.437m.75-7.312s.938-.375 1.313.188S6.75 11.813 6 13.313s-.563 3.094-.563 3.094-2.718-3 .375-6.469m20.344 7.219c-.562-1.594-2.906-3.375-2.906-3.375s.937-.562 1.219-2.531c.375-1.875-1.032-4.031-2.344-6-1.313-1.969-2.906.187-2.906.187l-1.875 12.938s.187 2.062 1.125 3.562c.187-.093-.094.188.187.375.469.282 1.031.563 1.5.938.375.281.375.656.75.843 2.625-.562 5.813-5.53 5.25-6.937"/><path fill="#719fc6" d="M18.28 28.595c.845-.47 1.407-.282 1.876-1.125l.562-1.22c.094-.187.094-.374.188-.655 0-.188-.094-.375-.094-.563v-.094c-.187-.937-.656-1.781-1.406-2.25-3.656-2.718-8.344-2.062-9.469-1.218-.375.28-1.5 1.687-1.781 2.25-.656 1.593 0 3.28 1.219 4.03 2.062 1.126 5.906.938 8.437.938.094 0 .281-.093.469-.093"/><path fill="#ffb55c" d="M9.469 26.25c-1.125-.562-.75-1.874-.094-3.28.188-.47.75-.938 1.031-1.126 1.032-.656 5.25-1.312 8.625.938.657.375 1.125 1.125 1.22 1.875v.094c.468 2.062-1.126 3.937-2.907 3.656-2.344-.375-5.906-1.125-7.875-2.156"/><path fill="#ffd097" d="M9.282 26.25c-1.032-.562 0-1.218.562-2.625.188-.468 1.219-1.5 1.5-1.687.938-.656 3.188-1.406 6.094.844.562.375.937 1.125 1.125 1.875v.093c.375 2.063-.656 3.657-2.25 3.375-2.063-.375-5.25-.843-7.031-1.875"/><path fill="#719fc6" d="M8.625 24c.094-.281.282.469.47.656.75.563 2.812 1.594 7.218 2.063 1.031.093 2.344-.75 4.125-1.22 0 0 .094.376 0 .938-.188 1.22-1.313 2.157-2.531 2.157-1.407 0-2.813 0-4.875-.563C9.75 27.187 7.875 26.812 8.625 24"/><path fill="#8e4028" d="M11.719 25.875s.281-.656.844-1.125c0 0-.376.75-.376 1.219z"/><path fill="#719fc6" d="M15 26.906s2.813-1.5 2.438-4.593c0 0 .937-.657 1.593-.094.657.562 1.875 2.156 1.407 4.031 0 .094-5.063 1.688-5.438.656m-4.781-1.312s-.563-1.407-.188-2.157 1.031-1.218 1.031-1.218l-.562-.469s-1.594.938-1.875 2.438zm-1.031 0s-.094.562.093 1.125l-.844.093s.094-.562.376-1.312c0-.281.374-.187.374.094"/><path fill="#ffd097" d="M16.032 25.5c-1.125-.094-2.062-.375-3.094-.75-.937-.375-1.875-.562-2.719-1.125-.093 0-.093-.094-.093-.094-.375.282-.563.75-.656 1.5-.094 1.313 2.25 3.375 2.25 3.375s1.968-.375 2.53-.656c.657-.281 2.063-2.062 2.063-2.062s0-.094-.281-.188"/><path fill="#29383a" d="m10.594 28.875.562-.562s.375-.844 1.781-1.125c0 0-1.5 1.5-1.593 1.875l-.469-.282"/><path fill="#fffffc" d="M15.094 25.875s-2.531.938-2.25 1.5 3.75-.937 2.25-1.5"/><path fill="#29383a" d="M18.563 22.125s1.875.75 2.343 2.438c0 0-1.968-2.063-2.812-2.157z"/><path fill="#8e4028" d="M15.563 4.218c-3.376-.094-6.282 0-8.063.938-.094.562-.187 1.218-.375 1.78-.281.845-.844 1.5-1.594 1.876 0 .844.188 1.969.563 3.187v.094c-.844.938-.657 6.375 2.156 9.375s4.313 3.938 9.094 1.875c4.781-2.062 5.906-3.562 6.375-5.906C24 15.093 24.75 4.406 15.562 4.218"/><path fill="#ffbc8f" d="M7.97 13.594s.187.562-.47 1.406c-.75.844-.937 3 1.5 5.625S12.844 24 17.063 22.22 22.125 20.063 22.5 18c.375-2.062 1.5-11.719-4.406-12.75S5.907 6.844 7.97 13.594"/><path fill="#ffdec7" d="M7.5 12.563s.188.562-.468 1.312c-.656.844-.938 2.813 1.406 5.344s3.656 3.188 7.688 1.5c4.03-1.687 4.968-3 5.25-4.969.28-1.968.28-10.03-5.25-11.062-5.532-1.031-10.594 1.5-8.625 7.875"/><path fill="#a45e2f" d="M12.562 16.875s1.032.281 1.219.75 0 1.031-.75.938c-.75-.188-1.969-1.22-.469-1.688"/><path fill="#ffbc8f" d="M12.47 16.688s.843.187 1.03.562 0 .844-.656.75-1.687-.937-.375-1.312"/><path fill="#ffc7ab" d="M12.375 16.688s.562.093.562.375c.094.187 0 .468-.375.468-.281-.093-.937-.562-.187-.843"/><path fill="#c62837" d="M14.906 20.438s-.47 1.312-1.407 1.312c-.843.094-2.718-.187-2.53-1.781 0 0-.188-.282.468-.094s2.812.844 3.469.563"/><path fill="#db3740" d="M15.188 19.969c-.47.093-1.126.187-1.5.093-.75-.187-1.032-.375-1.407-.187 0 0-.75-.375-1.312-.469-.469-.093-.563-.187-.563-.187s.656 1.406 1.969 1.406c1.125 0 1.969.188 2.906-.469.094 0 0-.093-.094-.187"/><path fill="#ffe782" d="M19.969 1.782C15.842 0 8.625 1.312 7.405 4.5 6.187 7.594 5.437 8.72 5.437 8.72c-.937.469-1.125 2.719-1.219 4.125-.093-.094.094.094 0 0 .47-.562 1.407-2.719 3.563-3.281 4.875-1.313 6.188-1.5 9.375-3.563 2.25-1.5 5.719 3 5.719 3s4.218-4.312-2.907-7.218"/><path fill="#8e4028" d="M22.688 12.937s1.593-.844 2.812-.375.188 4.687-2.437 4.687c0-.094-.282-3.656-.375-4.312"/><path fill="#ffbc8f" d="M22.687 13.875s1.594-1.031 2.531-.656-.656 3.656-2.812 3.562c-.094 0 .28-2.437.28-2.906"/><path fill="#ffd880" d="M18.094 3.188c-3.282-2.25-6.563 0-8.719.656-2.156.657-3 3.75-3.656 5.25l.656.657c.094.093.188.187.281.375L7.781 9c.469-.469.938-.938 1.5-1.313 1.125-.844 2.438-1.406 3.75-1.781l2.344-.469c.188-.094.375-.187.469-.281 2.156-.938 4.312-.375 4.312-.375z"/><path fill="#fffffc" d="m12.844 16.5 1.031-3.562s-1.125-.282-1.687 0l.187 3.468z"/><path fill="#8e4028" d="M7.031 11.156s.375-1.031 2.063-1.687l2.25-.75-3.375.75c-.938.281-1.782.656-1.782.656l.282 1.406z"/><path fill="#fffffc" d="M10.875 27.187s-.938-1.688-1.313-1.407c-.28.282 1.125 2.532 1.313 1.407m4.312-10.97s0-2.905.75-3.655c.657-.75 3.844 0 4.22 1.312.374 1.031.093 1.406-.75 2.625-.376.469-2.157.75-2.72.656-.75-.187-1.5-.468-1.5-.937"/><path fill="#719fc6" d="M18 16.969a1.875 1.875 0 1 0 0-3.75 1.875 1.875 0 0 0 0 3.75"/><path fill="#343f3d" d="M18 16.219a1.219 1.219 0 1 0 0-2.438 1.219 1.219 0 0 0 0 2.438"/><path fill="#ffdec7" d="m15 17.156-.281-.843 5.062.468-1.312 1.782z"/><path fill="#fffffc" d="M11.813 15.75s.094-2.062-.281-2.812c-.375-.844-2.438-1.219-3.094-.281-.562.75-.094 1.781.281 3 .188.469.563.844 1.032.844.75 0 1.968-.375 2.062-.75"/><path fill="#719fc6" d="M12.036 14.982a1.594 1.594 0 1 0-3.05-.927 1.594 1.594 0 0 0 3.05.927"/><path fill="#343f3d" d="M11.908 14.738a1.031 1.031 0 1 0-1.973-.6 1.031 1.031 0 0 0 1.973.6"/><path fill="#8e4028" d="M11.906 12.094s.281-.094-.187-.563c-.47-.469-2.813-.656-3.47-.562-.374.094-.187.656-.093 1.031.187.188.375.188.469.094s.187-.188.375-.188c.562 0 2.625-.187 2.906.188"/><path fill="#ffdec7" d="m7.594 16.406-.375-.937 5.062.469-1.312 1.78z"/><path fill="#ffe782" d="M10.781 7.781s4.406 3.469 7.969 3 5.531-3 5.531-3-3.468-5.062-13.5 0"/><path fill="#fff9de" d="M6.656 9.656S9.094 7.22 11.813 7.97s9.093 2.906 11.25-.282c0 0-1.594 3.844-6.282 3.094 0 0-3.843-1.875-6.75-1.875s-3.375.75-3.375.75"/><path fill="#d6884d" d="M6.563 9.938C6.563 9.375 6.28 9 6 8.906 6 9 5.906 9 5.906 9.094s-.093.094-.093.187c-.094.563-.375 1.125-.47 1.688-.28.937-.468 2.156-.937 3 .282 1.031 1.125 2.437 1.125 2.437L6 12.844c-.094-.938.563-1.688.563-2.906m16.406-.188 1.593 1.5c.094.094.47-2.25.47-2.25L24 6.75c-.094.094-.094 2.25-1.031 3"/><path fill="#ffe782" d="M6.281 7.407 5.438 9c-.375.562-.844 2.625-1.032 3.937.094.094.188.094.188.188l.093-.188S5.25 10.22 6 9.563s1.688-2.156 1.688-2.156-.75-.656-1.407 0"/><path fill="#ffd880" d="M23.063 8.344c-.094.094 3.187 2.437 3.093 4.969 0 2.437-.281 3.187-.281 3.187s1.875-1.875 1.219-3.844c-.657-1.969-.938-3.937-3.188-5.812 0 0-.562.937-.843 1.5"/><path fill="#fff9de" d="M12 3.188s3.563-1.5 6 .281c2.438 1.781 2.531 2.344 3.281 2.625s1.875.375 1.875.375l-1.875-1.687c-.75-.75-2.531-4.22-9.281-1.594"/><path fill="#ffdec7" d="M14.719 15.469s2.062-2.156 5.812-1.969c0 0-1.218-1.406-5.343-.562z"/><path fill="#8e4028" d="M15.375 13.593s-.282-.093.093-.656c.47-.562 3.844-1.687 4.5-1.594.375.094.282.657.188 1.032-.094.187-.281.187-.375.093-.094-.093-.188-.187-.469-.093-.562.093-3.656.843-3.937 1.218"/><path fill="#719fc6" d="m18.563 24.75 1.875-.375s1.312 2.813-1.407 4.313c-2.718 1.5-7.218-.094-7.218-.094s4.687.281 6-.844c1.312-1.312.75-3 .75-3"/></g></g></g><defs><clipPath id="a"><path fill="#fff" d="M0 0h30v30H0z"/></clipPath><clipPath id="b"><path fill="#fff" d="M0 0h30v30H0z"/></clipPath><clipPath id="c"><path fill="#fff" d="M0 0h30v30H0z"/></clipPath></defs></svg>