<svg xmlns="http://www.w3.org/2000/svg" width="30" height="30" fill="none" viewBox="0 0 30 30"><g clip-path="url(#a)"><g clip-path="url(#b)"><g clip-path="url(#c)"><path fill="#414f4d" d="M4.969 21.656s-1.5-.375-1.97.563c-.468.937.75 2.156.75 2.156zm.187 3.094s-1.5-.375-1.969.562c-.468.938.75 2.063.75 2.063z"/><path fill="#414f4d" d="M6.375 19.594s-1.5-.375-1.97.562c-.562 1.031.75 2.063.75 2.063zm6.28 6.75s.938 1.125.282 2.062c-.656.938-2.156.094-2.156.094z"/><path fill="#414f4d" d="M9.656 27.375s.938 1.125.281 2.063c-.656.937-2.156.093-2.156.093zm4.313-3.094s.937 1.125.281 2.063c-.656.937-2.156.093-2.156.093z"/><path fill="#662d29" d="M19.969 22.031c2.531-.844 4.875-2.625 6.468-5.156 3-5.063 1.688-11.719-3-15-5.156-3.563-12.28-1.969-15.75 3.468-1.312 1.97-1.875 4.22-1.875 6.376v.937c0 .188.094.469.094.656.469 8.25-2.156 12.094-2.156 12.094l1.031.656 3.938 2.531 1.031.657s1.969-3.469 8.813-6.657z"/><path fill="#662d29" d="M19.781 19.968a9.6 9.6 0 0 0 5.438-4.218C27.75 11.53 26.53 5.906 22.5 3.093 18.094 0 12 1.218 9.094 5.813 7.969 7.5 7.5 9.374 7.594 11.155v.281c0 .188 0 .375.093.563 0 .187.094.375.094.562C8.25 19.406 6 22.5 6 22.5l.938.562 3.375 2.156.937.563s1.688-2.906 7.5-5.438c.188-.093.656-.187 1.031-.375"/><path fill="#662d29" d="M22.03 10.34c.39-3.5-2.048-6.643-5.445-7.021C13.19 2.94 10.12 5.47 9.73 8.97c-.389 3.499 2.049 6.642 5.445 7.02s6.466-2.152 6.855-5.652"/><path fill="#662d29" d="M9.281 20.999s5.25-7.875 4.969-12.094c0-.469-.281-.844-.656-1.031-.563-.375-1.406-.094-1.688.469l-.187.28c-.375.563-.094 1.407.469 1.688l3.937 2.25m-4.594 9.657s4.125-8.438 7.875-10.407a1.39 1.39 0 0 1 1.219 0c.563.375.844 1.125.469 1.688l-.188.281c-.375.563-1.125.844-1.687.469l-3.938-2.25"/><path fill="#414f4d" d="M9.379 29.757c.295-.487-.83-1.71-2.511-2.73-1.683-1.02-3.286-1.452-3.581-.965-.296.487.829 1.708 2.51 2.729 1.683 1.02 3.286 1.453 3.582.966"/><path fill="#ff9c44" d="M19.969 20.907c2.343-.75 4.406-2.25 5.812-4.5 2.719-4.594 1.407-10.594-2.906-13.594C18.094-.562 11.625.844 8.531 5.625c-1.125 1.782-1.687 3.75-1.594 5.72v.28c0 .188 0 .376.094.657 0 .187.094.375.094.656.469 7.312-1.875 10.687-1.875 10.687l.938.657 3.656 2.343.937.657s1.781-3.094 7.969-5.813a3.6 3.6 0 0 1 1.219-.562"/><path fill="url(#d)" d="M19.406 19.687c1.969-.562 3.844-1.968 4.969-3.843 2.344-3.938 1.219-9-2.531-11.625-4.032-2.907-9.657-1.688-12.282 2.437a9.43 9.43 0 0 0-1.406 4.875v.75c0 .188 0 .375.094.563.375 6.28-1.594 9.187-1.594 9.187l.844.469 3.094 1.969.844.562s1.5-2.625 6.843-4.969c.375-.187.75-.28 1.125-.375"/><path fill="#e4edec" d="m8.344 29.25-4.125-2.625c-.375-.281-.469-.75-.282-1.219.282-.375.75-.468 1.22-.281L9.28 27.75c.375.281.469.75.281 1.219-.28.375-.843.468-1.218.281"/><path fill="#414f4d" d="M10.273 28.233c.296-.487-.829-1.709-2.511-2.729s-3.285-1.453-3.58-.966c-.296.487.828 1.71 2.51 2.73 1.683 1.02 3.286 1.452 3.581.965"/><path fill="#e4edec" d="M9.554 28.363c.215-.355-.795-1.36-2.256-2.246s-2.82-1.318-3.034-.963c-.215.354.795 1.36 2.256 2.245 1.461.886 2.82 1.318 3.034.963"/><path fill="#8caaa5" d="M8.72 29.344c-.188.28-1.407-.094-2.72-.938-1.312-.844-2.25-1.687-2.062-1.969.187-.281 1.312.188 2.625 1.031 1.312.75 2.344 1.594 2.156 1.875"/><path fill="#414f4d" d="M11.92 28.687c.296-.487-1.439-2.079-3.873-3.556s-4.648-2.279-4.944-1.792c-.295.487 1.44 2.079 3.874 3.556s4.648 2.279 4.943 1.792"/><path fill="#e4edec" d="M10.781 28.031 4.22 23.813c-.375-.282-.469-.75-.282-1.22.282-.374.75-.468 1.22-.28l6.562 4.218c.375.282.469.75.281 1.219-.281.375-.75.563-1.219.281"/><path fill="#414f4d" d="M13.293 26.539c.296-.487-1.439-2.08-3.873-3.556-2.435-1.477-4.648-2.28-4.944-1.793-.295.487 1.44 2.08 3.874 3.556 2.435 1.477 4.648 2.28 4.943 1.793"/><path fill="#e4edec" d="M12 25.969 5.439 21.75c-.281-.187-.469-.75-.188-1.125.282-.375.75-.469 1.22-.281l6.562 4.218c.375.282.469.75.281 1.22-.375.374-.844.468-1.312.187"/><path fill="#414f4d" d="M14.239 24.92c.295-.488-1.44-2.08-3.874-3.556-2.435-1.477-4.648-2.28-4.943-1.793-.296.487 1.439 2.08 3.873 3.556 2.435 1.477 4.648 2.28 4.944 1.793"/><path fill="#e4edec" d="M13.406 25.219c-.188.375-2.157-.657-4.219-1.875-2.063-1.22-3.75-2.72-3.469-3 .281-.282 2.156.375 4.219 1.687s3.656 2.813 3.469 3.188"/><path fill="#8caaa5" d="M12.46 25.876c.215-.355-1.19-1.6-3.138-2.781s-3.7-1.852-3.915-1.498 1.19 1.599 3.137 2.78c1.948 1.182 3.701 1.853 3.916 1.499"/><path fill="#414f4d" d="M12.737 27.1c.295-.488-1.44-2.08-3.874-3.557s-4.648-2.279-4.943-1.792c-.296.487 1.439 2.079 3.873 3.556s4.648 2.28 4.944 1.792"/><path fill="#e4edec" d="M12.093 27.282c-.187.375-2.344-.562-4.5-1.875s-3.75-2.531-3.562-2.906c.187-.375 2.25.375 4.406 1.687s3.937 2.72 3.656 3.094"/><path fill="#8caaa5" d="M11.01 27.975c.214-.354-1.191-1.599-3.139-2.78-1.948-1.182-3.7-1.852-3.916-1.498-.214.354 1.19 1.599 3.138 2.78 1.948 1.182 3.701 1.852 3.916 1.498"/><path fill="#fff" d="M21.488 10.793c.36-3.242-1.892-6.153-5.03-6.503-3.14-.349-5.977 1.996-6.338 5.238s1.892 6.154 5.03 6.503c3.14.35 5.977-1.996 6.338-5.238"/><path stroke="#bf661d" stroke-linecap="round" stroke-linejoin="round" stroke-miterlimit="10" stroke-width=".831" d="M9.75 20.532s4.781-7.22 4.594-11.063c0-.375-.281-.75-.563-.937-.562-.282-1.312-.094-1.594.468L12 9.282c-.281.562-.094 1.312.469 1.593l3.656 2.063m-4.312 8.719s3.75-7.782 7.218-9.563q.563-.28 1.125 0c.563.281.75 1.031.469 1.594l-.187.281c-.282.563-1.032.75-1.594.469l-3.657-2.063"/></g></g></g><defs><clipPath id="a"><path fill="#fff" d="M0 0h30v30H0z"/></clipPath><clipPath id="b"><path fill="#fff" d="M0 0h30v30H0z"/></clipPath><clipPath id="c"><path fill="#fff" d="M0 0h30v30H0z"/></clipPath><linearGradient id="d" x1="22.506" x2="7.857" y1="3.985" y2="23.078" gradientUnits="userSpaceOnUse"><stop stop-color="#ffe471"/><stop offset="1" stop-color="#fff"/></linearGradient></defs></svg>