<svg xmlns="http://www.w3.org/2000/svg" width="30" height="30" fill="none" viewBox="0 0 30 30"><g clip-path="url(#a)"><g clip-path="url(#b)"><g clip-path="url(#c)"><path fill="#29383a" d="m26.157 3 .375-3.094-1.313-1.781L3.001 6.281-.656 26.156S-1.218 30 2.251 30.094c1.875.093 12 .843 18.562 1.312v-.093c7.031.375 7.594-6.375 7.594-6.375L31.219 1.78z"/><path fill="#e4edec" d="M21.469 29.344 5.625 28.219 9.563 7.5 30 2.813l-2.625 21.28C27 27 24.469 29.532 21.469 29.344"/><path fill="#e4edec" d="M21.656 26.625.563 25.5 3.938 6.938 24.844-.75z"/><path fill="#f9f9f9" d="M20.719 26.438 1.03 25.5l1.5-8.906L22.313 13.5z"/><path fill="#86ada8" d="m21.938 9.563-18.47 4.03.095-.374L22.03 9zm-.282 2.25-11.343 2.062v-.469L21.75 11.25zm-.281 2.25L9.938 15.75l.093-.469L21.47 13.5zm-.281 2.25L9.656 17.625l.094-.469 11.438-1.406zm-14.532 5.25-4.406.093v-.375l4.406-.187zm-.375 1.78H1.782l.094-.374 4.406-.094zM22.97 1.5 4.594 7.781v-.375l18.469-6.375z"/><path fill="#343f3d" d="m6.563 11.625-1.5-2.063-.47 2.532-.468.093.656-3.562.469-.188 1.5 1.97.469-2.626.562-.187-.656 3.75zm2.156-4.219 2.344-.75-.094.656-1.594.47-.187.937 1.5-.47-.094.657-1.5.469-.188 1.031 1.688-.469-.094.657-2.437.656zm7.406 1.781-.844.188-.75-2.813-1.594 3.375-.75.282-.656-3.75.844-.282.469 2.72 1.5-3.282.844-.281.656 2.812 1.5-3.469.937-.28zm2.531-3.937c.094-.656.844-1.5 1.969-1.875.75-.281 1.313-.281 1.688-.094l-.657.844c-.281-.094-.562-.188-1.031 0-.469.187-.844.469-.844.75-.093.937 2.625-.188 2.438 1.5-.094.844-1.125 1.594-2.25 1.875-.75.187-1.594.094-1.782-.281l.657-.75c.281.28.843.28 1.312.187s.938-.469.938-.75c.093-.844-2.625.094-2.438-1.406"/><path fill="#ff6c6c" d="m7.219 19.688-4.781.375.937-5.25 4.875-.938z"/><path fill="#ffb040" d="m19.5 25.5-10.969-.469.938-5.531 10.969-.844z"/><path fill="#809692" d="M21.188 27.563.468 26.156s-.28 2.532 2.157 2.625c1.688 0 11.719.75 17.813 1.219.093-.844.468-1.594.75-2.437"/><path fill="#e4edec" d="M.563 25.031.375 26.25l21.094 1.5.187-1.406z"/><path fill="#809692" d="M28.406 4.313h.844l-2.719 21.093-.562-.093zm-2.343.937h.75l-2.72 21.094-.562-.094zm-4.97 23.344L24.844-.75l.845 1.313-3.375 28.125z"/><path fill="#809692" d="m20.156 28.219.563-.469s6.187.188 6.656-3.562c0 0-.562 6.375-7.125 5.906z"/><path fill="#809692" d="M22.594 25.5s-.094 2.344 1.687 2.25l-2.906.938z"/></g></g></g><defs><clipPath id="a"><path fill="#fff" d="M0 0h30v30H0z"/></clipPath><clipPath id="b"><path fill="#fff" d="M0 0h30v30H0z"/></clipPath><clipPath id="c"><path fill="#fff" d="M0 0h30v30H0z"/></clipPath></defs></svg>