<svg xmlns="http://www.w3.org/2000/svg" width="30" height="30" fill="none" viewBox="0 0 30 30"><g clip-path="url(#a)"><g clip-path="url(#b)"><g clip-path="url(#c)"><path fill="#29383a" d="M29.813 10.312v-.282c0-.75-.375-2.156-2.063-2.812-5.344-3.281-10.687-5.063-12.469-4.125-2.062 1.031-3.187 3.094-3.187 3.094-2.719-.75-4.406-.938-7.5 3.656-2.344 3.469-3.188 9-3.657 12.187l-.562 2.625c.188.282.188.375.563.657-.094 0 0 .093.187.187.375.375 3.375 1.969 7.219 2.625h.094c3.75.563 8.25.188 12.187-3.187 0 0 9.469-4.125 9.188-14.625"/><path fill="#29383a" d="M25.5 10.687S18.938 7.593 18 8.062l-7.219 3.469c-.937.468-3.562 4.125-3.937 4.969-.375.937-.938 5.156-.938 5.156l10.407-2.813 4.03-3z"/><path fill="#e8e8e8" d="M18.563 8.437s.844 1.875 0 2.344l-2.625 1.312s-.562.094-1.03-.281c0 0 .093.656-.376.937l-2.812 1.407s-1.032.28-1.407-.282.094-2.062.094-2.062l1.875-1.313s5.25-2.53 6.281-2.062"/><path fill="#eb3939" d="M27.375 7.97c.563.374.563 1.218.094 1.593-.938.75-2.344 1.5-3.938 1.031-2.531-.843-4.5-1.78-5.718-1.5-1.125.282-1.594 1.22-2.625 1.97-1.032.75-2.626 1.124-3.75 1.124-1.126-.094-1.688 1.969-2.25 3.563-.563 1.593-1.876 8.156-4.032 9.28C3 26.064 1.5 23.72 1.5 23.72s.75-8.718 3.938-13.406C8.25 6.188 9.843 6.376 12.28 7.032c0 0 1.031-1.969 2.906-2.813 1.688-.937 7.126.563 12.188 3.75"/><path fill="#eb3939" d="M28.688 10.407c0-.656-.656-1.125-1.219-.938l-4.687 2.063c-2.813 1.594-5.907 5.25-5.907 5.25s-3.093 0-4.593.844l-9.844 4.968c-1.031.657-.938 1.5-.188 2.157.75.656 10.407 5.812 17.813-.563.094-.094 8.813-4.031 8.625-13.781"/><path fill="#f05252" d="M25.593 7.593c1.032.188 1.125 1.5.188 1.875-.563.281-1.219.375-1.969.094-2.156-.656-5.906-2.625-8.063-.281-2.343 2.53-4.968 1.875-4.968 1.875s-1.125.468-1.969 2.718c-.75 1.97-2.25 5.157-5.625 7.313-.562.375-.375-1.313 0-1.969.938-1.687 1.219-3 1.781-4.5.844-2.344 2.625-7.969 7.125-6.656l.938.094s1.218-2.907 3.187-3.094c1.969-.188 6.563 2.062 8.344 2.344.281.093.656.093 1.031.187M26.062 12c-1.687.47-4.875 1.875-8.25 5.907 0 0-7.219.468-12.094 4.406 0 0-2.062.937-1.5 1.312.563.47 8.156 4.22 14.438-.375l1.312-1.593s5.25-1.875 7.032-8.72c.187-.562-.375-1.124-.938-.937"/><path fill="#ff8f8f" d="M11.906 20.907a3.4 3.4 0 0 0-.938.656 1.15 1.15 0 0 0-.094 1.22c.188.28.563.28.844.28l2.156-.093c.563 0 1.125 0 1.688-.282.562-.28 1.031-.75 1.125-1.406.562-2.437-3.844-.844-4.782-.375m8.343-3.562c-.375.468-.656 1.218-.375 1.78.188.47.75.657 1.125.563.469-.093.75-.375 1.125-.656.657-.562 1.219-1.125 1.688-1.781.375-.563.843-1.125.937-1.781.094-.375 0-1.313-.468-1.594-.375-.188-1.032.375-1.313.562a10.1 10.1 0 0 0-2.719 2.907m-6.375-9.282s.563-1.78 2.156-2.156c1.5-.281 3.938.188 4.032.656.093.47-1.5.094-3.094.844-1.594.844-3 1.313-3.094.656m-1.594.657s-1.78-.657-3.187.468-2.719 3.657-2.437 4.125c.28.47 1.125-1.406 3-2.343 1.78-.938 3-1.782 2.624-2.25"/><path fill="#29383a" d="m9.375 18.188-.281-2.063s-.469 2.719-4.875 5.719l6.187-3.375zm12.75-7.125-.281-1.032s2.625.281 4.968-.656l-2.906 1.688z"/><path fill="#ba2a2a" d="m1.969 20.531.281 2.813s4.875 3.187 6.938 3.843c0 0-6.188-1.5-7.876-3.375z"/><path fill="#eb3939" d="m26.813 8.063.75 1.874 1.03.75s.376-2.156-1.874-3.093z"/></g></g></g><defs><clipPath id="a"><path fill="#fff" d="M0 0h30v30H0z"/></clipPath><clipPath id="b"><path fill="#fff" d="M0 0h30v30H0z"/></clipPath><clipPath id="c"><path fill="#fff" d="M0 0h30v30H0z"/></clipPath></defs></svg>