<svg xmlns="http://www.w3.org/2000/svg" width="30" height="30" fill="none" viewBox="0 0 30 30"><g clip-path="url(#a)"><g clip-path="url(#b)"><g clip-path="url(#c)"><path fill="#29383a" d="M23.531 27.75 27 27.656l2.719-21.468c.093-.47-.094-1.032-.375-1.407L27.094 1.5 27 3.188c0 .656-3.469 24.562-3.469 24.562"/><path fill="#29383a" d="m.281 25.594 1.406 1.5c.375.843 1.126 1.406 1.97 1.406l21.093.844c.938 0 1.781-.563 2.156-1.407l.094-.28z"/><path fill="#29383a" d="m23.813 27.563-22.22-1.407c-.75 0-1.218-.75-1.124-1.5L3.75 6.563l23.438-3.657z"/><path fill="#29383a" d="M26.719 6 3.28 8.717l.375-2.438c.094-.656.563-1.125 1.125-1.218L26.063.937c.75-.094 1.312.562 1.218 1.312z"/><path fill="#29383a" d="m12.094 6.28-7.031.844.187-.937 7.031-1.406zm-7.875 4.782L2.25 23.718h20.063l1.312-14.25zm21.469-7.594c-.094 1.031-1.032 1.781-1.97 1.781-.75 0-1.218-.562-1.218-1.218 0-.75.563-1.5 1.406-1.782 1.032-.375 1.875.188 1.782 1.22"/><path fill="#658c8a" d="M23.156 27.375h3.282l2.625-20.437c.093-.47-.094-.938-.375-1.313L26.53 2.531l-.093 1.594c0 .656-3.282 23.25-3.282 23.25"/><path fill="url(#d)" d="m.938 25.219 1.406 1.312c.281.844 1.031 1.313 1.875 1.313l20.062.75c.844 0 1.688-.469 2.063-1.313L23.53 26.25z"/><path fill="url(#e)" d="m23.437 26.531-21.188-.75c-.656 0-1.218-.656-1.03-1.406l3-17.25L26.53 3.656z"/><path fill="url(#f)" d="M26.156 6.657 3.844 9.188l.375-2.344c.093-.562.468-1.031 1.031-1.125L25.5 1.782c.656-.094 1.219.468 1.125 1.218z"/><path fill="#fff" d="m10.031 7.313-4.5.375.188-.938 4.594-.844z"/><path fill="url(#g)" d="m5.906 10.313-2.812 14.25h19.312L24.563 8.53z"/><path fill="#b76b2c" d="M25.125 4.22c-.094.937-1.031 1.687-1.875 1.687-.75 0-1.219-.563-1.219-1.22 0-.655.563-1.5 1.313-1.687 1.125-.28 1.875.282 1.781 1.22"/><path fill="#29383a" d="m8.906 11.063.844-.563c.281-.187.563-.469.938-.656l1.03-.938c.47-.375.845-.844 1.313-1.406l4.313-1.219-1.875 14.25 2.812-.093-.468 4.218-10.22-.937.657-3.375 1.781.375 1.594-8.813-2.25 1.313z"/><path fill="#fff" d="m9.281 11.438.844-.563c.281-.187.563-.375.844-.656s.656-.563.937-.844l1.219-1.312 3.938-1.126-1.782 13.22 2.625-.095-.375 3.844-9.843-.468.656-3.094 2.062-.094 1.5-8.156-2.156 1.312z"/><path fill="url(#h)" d="M17.344 6.188 18.375 7.5l-1.594 12.469h-1.218z"/><path fill="#b76b2c" d="m9.375 13.219.563 1.594 1.406-.938.469-1.781z"/><path fill="#29383a" d="m17.719 24 1.125 1.219-10.032-.469L7.5 23.531zm.093-3.937 1.5 1.125-.468 3.843-1.313-1.218z"/><path fill="#b76b2c" d="M10.875 13.594 9.75 20.25h.563l1.406-8.062z"/><path fill="#b76b2c" d="m10.031 19.688-2.437.187-.563 3.656 1.782 1.219-1.22-1.5.75-2.906 1.876-.188z"/></g></g></g><defs><linearGradient id="d" x1=".968" x2="26.341" y1="26.989" y2="26.989" gradientUnits="userSpaceOnUse"><stop stop-color="#578281"/><stop offset="1" stop-color="#414f4d"/></linearGradient><linearGradient id="e" x1="1.131" x2="26.556" y1="15.078" y2="15.078" gradientUnits="userSpaceOnUse"><stop stop-color="#fff"/><stop offset="1" stop-color="#d5eced"/></linearGradient><linearGradient id="f" x1="27.746" x2="1.492" y1="-3.011" y2="16.89" gradientUnits="userSpaceOnUse"><stop stop-color="#ffe471"/><stop offset=".519" stop-color="#ff9c44"/></linearGradient><linearGradient id="g" x1="34.968" x2="6.021" y1="1.625" y2="23.567" gradientUnits="userSpaceOnUse"><stop stop-color="#ffe471"/><stop offset=".519" stop-color="#ff9c44"/></linearGradient><linearGradient id="h" x1="15.546" x2="18.373" y1="13.11" y2="13.11" gradientUnits="userSpaceOnUse"><stop stop-color="#578281"/><stop offset="1" stop-color="#414f4d"/></linearGradient><clipPath id="a"><path fill="#fff" d="M0 0h30v30H0z"/></clipPath><clipPath id="b"><path fill="#fff" d="M0 0h30v30H0z"/></clipPath><clipPath id="c"><path fill="#fff" d="M0 0h30v30H0z"/></clipPath></defs></svg>